<svg width="335" height="307" viewBox="0 0 335 307" fill="none" xmlns="http://www.w3.org/2000/svg">
<path d="M167.022 306.499C259.266 306.499 334.044 263.327 334.044 210.072C334.044 156.816 259.266 113.645 167.022 113.645C74.7783 113.645 0 156.816 0 210.072C0 263.327 74.7783 306.499 167.022 306.499Z" fill="#F0F0F0"/>
<path d="M252.579 263.762C279.736 263.762 301.751 251.053 301.751 235.376C301.751 219.698 279.736 206.989 252.579 206.989C225.423 206.989 203.408 219.698 203.408 235.376C203.408 251.053 225.423 263.762 252.579 263.762Z" fill="#E0E0E0"/>
<path d="M71.4466 249.252L60.1992 242.763C59.7283 242.523 59.207 242.397 58.6782 242.397C58.1495 242.397 57.6282 242.523 57.1573 242.763L48.7732 247.604C48.2994 247.839 47.7777 247.961 47.2489 247.961C46.72 247.961 46.1983 247.839 45.7245 247.604L17.3382 231.214C16.4936 230.726 16.4936 229.937 17.3382 229.456L111.451 175.114C111.923 174.873 112.446 174.748 112.976 174.748C113.505 174.748 114.028 174.873 114.5 175.114L142.893 191.477C143.076 191.542 143.234 191.662 143.345 191.821C143.457 191.98 143.517 192.169 143.517 192.363C143.517 192.557 143.457 192.746 143.345 192.905C143.234 193.063 143.076 193.183 142.893 193.249L134.495 198.186C134.311 198.247 134.151 198.365 134.037 198.523C133.924 198.681 133.863 198.87 133.863 199.065C133.863 199.259 133.924 199.448 134.037 199.606C134.151 199.764 134.311 199.882 134.495 199.943L145.729 206.336C145.914 206.396 146.075 206.513 146.19 206.67C146.304 206.828 146.366 207.017 146.366 207.212C146.366 207.406 146.304 207.596 146.19 207.753C146.075 207.91 145.914 208.027 145.729 208.087L74.4885 249.252C74.0176 249.493 73.4963 249.618 72.9675 249.618C72.4388 249.618 71.9175 249.493 71.4466 249.252Z" fill="#E0E0E0"/>
<path d="M282.442 16.8335L287.434 19.7174C287.406 19.4897 287.392 19.2603 287.393 19.0308V17.6094C287.393 15.0345 289.199 13.9907 291.43 15.2816C292.39 15.8694 293.21 16.6591 293.834 17.5957C294.198 14.3547 296.738 13.1461 299.828 14.9315C303.158 16.8541 305.864 21.5371 305.864 25.3892V27.559C305.884 28.422 305.71 29.2785 305.356 30.0653L309.476 32.4618C310.127 32.8855 310.67 33.4571 311.059 34.1301C311.448 34.803 311.672 35.5583 311.714 36.3345C311.714 37.7627 310.712 38.3464 309.476 37.6323L282.442 22.004C281.79 21.5788 281.248 21.0059 280.859 20.3318C280.47 19.6578 280.245 18.9015 280.203 18.1244C280.203 16.6962 281.206 16.1194 282.442 16.8335Z" fill="#F0F0F0"/>
<path d="M248.707 23.316L251.453 24.3735V18.3103C251.453 13.5037 255.285 12.3433 259.453 14.7466C263.621 17.1567 267.006 22.9864 267.006 27.793V28.6788C267.592 28.497 268.212 28.4508 268.819 28.5435C269.425 28.6363 270.003 28.8657 270.508 29.2144C272.087 30.2451 273.401 31.6332 274.343 33.2664C275.286 34.8996 275.83 36.7319 275.932 38.6147V39.0405L279.778 41.2584C280.816 41.9366 281.679 42.8492 282.3 43.9227C282.92 44.9962 283.279 46.2004 283.348 47.4383C283.348 49.7179 281.748 50.6381 279.778 49.4982L248.707 31.5696C247.668 30.8922 246.804 29.9798 246.183 28.9061C245.563 27.8325 245.204 26.6278 245.136 25.3897C245.136 23.1032 246.736 22.1762 248.707 23.316Z" fill="#F0F0F0"/>
<path d="M292.124 153.794L286.631 150.608C286.631 150.608 283.348 136.964 284.66 124.693C286.493 107.438 297.857 100.942 302.176 102.432C306.496 103.922 307.745 108.941 300.597 119.221C296.374 125.284 291.197 137.918 292.124 153.794Z" fill="#506DE4"/>
<g opacity="0.15">
<path d="M292.124 153.794L286.631 150.608C286.631 150.608 283.348 136.964 284.66 124.693C286.493 107.438 297.857 100.942 302.176 102.432C306.496 103.922 307.745 108.941 300.597 119.221C296.374 125.284 291.197 137.918 292.124 153.794Z" fill="black"/>
</g>
<path d="M289.858 147.091H289.906C290.005 147.071 290.093 147.014 290.15 146.93C290.208 146.847 290.231 146.745 290.215 146.645C287.187 130.728 292.749 112.841 299.636 105.404C299.707 105.332 299.748 105.235 299.748 105.133C299.748 105.032 299.707 104.934 299.636 104.862C299.564 104.79 299.466 104.75 299.365 104.75C299.263 104.75 299.165 104.79 299.093 104.862C292.083 112.415 286.411 130.618 289.48 146.748C289.49 146.841 289.534 146.928 289.604 146.991C289.673 147.055 289.764 147.09 289.858 147.091Z" fill="white"/>
<path d="M306.592 162.136C307.457 162.582 309.778 160.598 310.423 160.11C311.53 159.272 312.403 158.163 312.957 156.89C313.575 155.456 313.733 153.865 313.41 152.337C313.237 151.526 313.007 150.727 312.724 149.948C312.456 149.179 312.195 148.403 311.927 147.634C311.616 146.89 311.459 146.091 311.467 145.285C311.591 143.672 312.957 142.47 314.214 141.433C315.587 140.293 317.008 138.796 316.905 136.867C316.721 135.373 316.05 133.98 314.996 132.905C314.014 131.779 312.868 130.804 311.968 129.609C311.271 128.78 310.874 127.739 310.842 126.656C310.898 125.988 311.09 125.339 311.405 124.747C312.023 123.45 312.868 122.255 313.266 120.881C313.664 119.508 313.52 117.826 312.415 116.913C311.508 116.157 310.217 116.116 309.043 116.226C307.953 116.413 306.916 116.837 306.008 117.469C303.028 119.33 301.456 123.051 298.269 124.528C296.997 124.994 295.696 125.382 294.376 125.688C293.085 126.1 291.781 126.842 291.238 128.078C290.16 130.529 292.529 133.358 291.815 135.933C291.183 138.213 289.068 139.181 287.928 141.268C287.474 142.186 287.325 143.226 287.503 144.235C287.697 145.944 288.202 147.603 288.993 149.13C289.881 150.7 290.865 152.213 291.938 153.662C291.938 153.662 306.454 162.067 306.592 162.136Z" fill="#506DE4"/>
<path d="M298.146 157.736C298.197 157.731 298.246 157.717 298.291 157.694C298.336 157.67 298.376 157.638 298.408 157.599C298.441 157.56 298.465 157.515 298.48 157.467C298.496 157.418 298.501 157.367 298.496 157.317C297.123 142.21 303.399 125.044 308.357 119.942C308.419 119.867 308.451 119.771 308.445 119.674C308.439 119.576 308.397 119.485 308.326 119.417C308.255 119.35 308.162 119.312 308.064 119.312C307.966 119.311 307.872 119.347 307.8 119.413C302.753 124.646 296.319 142.039 297.734 157.392C297.738 157.442 297.752 157.49 297.775 157.535C297.799 157.579 297.83 157.618 297.868 157.65C297.907 157.682 297.951 157.706 297.999 157.72C298.046 157.735 298.096 157.74 298.146 157.736Z" fill="white"/>
<path d="M299.677 139.072C299.714 139.078 299.751 139.078 299.787 139.072C303.317 137.896 306.964 137.107 310.664 136.717C310.763 136.706 310.855 136.657 310.919 136.58C310.983 136.503 311.015 136.404 311.007 136.305C311.005 136.253 310.992 136.203 310.969 136.157C310.946 136.111 310.914 136.07 310.874 136.037C310.835 136.005 310.789 135.98 310.74 135.966C310.691 135.952 310.639 135.948 310.588 135.954C306.81 136.343 303.085 137.139 299.478 138.33C299.43 138.346 299.387 138.372 299.349 138.405C299.312 138.439 299.281 138.48 299.26 138.525C299.239 138.571 299.227 138.62 299.226 138.671C299.224 138.721 299.233 138.771 299.251 138.818C299.281 138.903 299.34 138.976 299.418 139.023C299.496 139.069 299.588 139.086 299.677 139.072Z" fill="white"/>
<path d="M130.107 10.1519L52.9821 54.6815C52.2243 55.1778 51.594 55.8453 51.1419 56.6302C50.6898 57.4151 50.4287 58.2953 50.3796 59.1997V240.834C50.3796 242.496 51.547 243.175 52.9821 242.338L130.107 197.815C130.865 197.319 131.495 196.651 131.947 195.866C132.399 195.081 132.661 194.201 132.71 193.297V11.6557C132.71 9.99397 131.542 9.32105 130.107 10.1519ZM128.954 180.889C128.954 182.31 127.958 183.217 126.722 183.931L56.1063 224.704C54.8772 225.391 53.8747 224.835 53.8747 223.407V72.8504C53.8737 72.0684 54.0789 71.3 54.4694 70.6225C54.86 69.945 55.4222 69.3824 56.0995 68.9914L126.715 28.1972C126.942 28.0678 127.199 28 127.46 28.0006C127.722 28.0012 127.978 28.0702 128.205 28.2008C128.431 28.3313 128.619 28.5188 128.751 28.7447C128.882 28.9705 128.952 29.2268 128.954 29.4881V180.889Z" fill="#506DE4"/>
<g opacity="0.3">
<path d="M130.107 10.1519L52.9821 54.6815C52.2243 55.1778 51.594 55.8453 51.1419 56.6302C50.6898 57.4151 50.4287 58.2953 50.3796 59.1997V240.834C50.3796 242.496 51.547 243.175 52.9821 242.338L130.107 197.815C130.865 197.319 131.495 196.651 131.947 195.866C132.399 195.081 132.661 194.201 132.71 193.297V11.6557C132.71 9.99397 131.542 9.32105 130.107 10.1519ZM128.954 180.889C128.954 182.31 127.958 183.217 126.722 183.931L56.1063 224.704C54.8772 225.391 53.8747 224.835 53.8747 223.407V72.8504C53.8737 72.0684 54.0789 71.3 54.4694 70.6225C54.86 69.945 55.4222 69.3824 56.0995 68.9914L126.715 28.1972C126.942 28.0678 127.199 28 127.46 28.0006C127.722 28.0012 127.978 28.0702 128.205 28.2008C128.431 28.3313 128.619 28.5188 128.751 28.7447C128.882 28.9705 128.952 29.2268 128.954 29.4881V180.889Z" fill="black"/>
</g>
<path d="M128.954 180.889C128.954 182.311 127.958 183.217 126.722 183.931L56.1065 224.705C54.8774 225.391 53.8749 224.835 53.8749 223.407V72.8508C53.8739 72.0688 54.079 71.3004 54.4696 70.6229C54.8602 69.9454 55.4224 69.3828 56.0996 68.9918L126.715 28.1976C126.942 28.0681 127.199 28.0004 127.46 28.001C127.722 28.0016 127.978 28.0706 128.205 28.2012C128.431 28.3317 128.619 28.5192 128.751 28.7451C128.882 28.9709 128.952 29.2272 128.954 29.4885V180.889Z" fill="#506DE4"/>
<path d="M128.954 180.889C128.954 182.311 127.958 183.217 126.722 183.931L56.1065 224.705C54.8774 225.391 53.8749 224.835 53.8749 223.407V72.8508C53.8739 72.0688 54.079 71.3004 54.4696 70.6229C54.8602 69.9454 55.4224 69.3828 56.0996 68.9918L126.715 28.1976C126.942 28.0681 127.199 28.0004 127.46 28.001C127.722 28.0016 127.978 28.0706 128.205 28.2012C128.431 28.3317 128.619 28.5192 128.751 28.7451C128.882 28.9709 128.952 29.2272 128.954 29.4885V180.889Z" fill="#506DE4"/>
<path opacity="0.5" d="M128.954 180.889C128.954 182.311 127.958 183.217 126.722 183.931L56.1065 224.705C54.8774 225.391 53.8749 224.835 53.8749 223.407V72.8508C53.8739 72.0688 54.079 71.3004 54.4696 70.6229C54.8602 69.9454 55.4224 69.3828 56.0996 68.9918L126.715 28.1976C126.942 28.0681 127.199 28.0004 127.46 28.001C127.722 28.0016 127.978 28.0706 128.205 28.2012C128.431 28.3317 128.619 28.5192 128.751 28.7451C128.882 28.9709 128.952 29.2272 128.954 29.4885V180.889Z" fill="black"/>
<path d="M56.1062 224.704L126.722 183.924C127.207 183.653 127.655 183.321 128.054 182.935L53.854 140.108V223.407C53.854 224.835 54.8771 225.412 56.1062 224.704Z" fill="#506DE4"/>
<path opacity="0.4" d="M56.1062 224.704L126.722 183.924C127.207 183.653 127.655 183.321 128.054 182.935L53.854 140.108V223.407C53.854 224.835 54.8771 225.412 56.1062 224.704Z" fill="black"/>
<path d="M123.241 176.281V30.209L56.0994 68.9913C55.4183 69.3797 54.8519 69.9411 54.4576 70.6188C54.0633 71.2964 53.8551 72.0663 53.854 72.8503V218.085L120.981 179.323C122.245 178.609 123.241 177.703 123.241 176.281Z" fill="#455A64"/>
<path d="M52.6594 242.502C51.8807 242.833 51.0395 242.99 50.1941 242.962C49.3486 242.935 48.5193 242.724 47.7635 242.344L44.7835 240.621C44.0247 240.127 43.3935 239.461 42.9412 238.677C42.4889 237.893 42.2284 237.013 42.181 236.11V54.4754C42.1935 53.8007 42.348 53.1363 42.6342 52.5253C42.7261 52.3094 42.8292 52.0986 42.9432 51.8936L51.1831 56.6315C50.9957 56.9339 50.8327 57.2508 50.6956 57.5791C50.4984 58.0948 50.3915 58.6407 50.3797 59.1927V240.841C50.3797 242.372 51.3753 243.065 52.6594 242.502Z" fill="#506DE4"/>
<g opacity="0.5">
<path d="M52.659 242.502C51.8804 242.833 51.0391 242.99 50.1937 242.962C49.3483 242.935 48.5189 242.724 47.7632 242.344L44.7831 240.621C44.0244 240.127 43.3931 239.461 42.9408 238.677C42.4885 237.893 42.2281 237.013 42.1807 236.11V54.4754C42.1932 53.8007 42.3476 53.1363 42.6339 52.5253C42.7257 52.3094 42.8288 52.0986 42.9429 51.8936L51.1827 56.6315C50.9954 56.9339 50.8323 57.2508 50.6952 57.5791C50.498 58.0948 50.3912 58.6407 50.3793 59.1927V240.841C50.3793 242.372 51.375 243.065 52.659 242.502Z" fill="black"/>
</g>
<path d="M93.2546 208.17C94.5867 208.17 94.7309 209.667 94.7309 210.305C94.6508 211.593 94.2738 212.844 93.6293 213.961C92.9848 215.079 92.0904 216.032 91.0161 216.746C90.5817 217.017 90.0855 217.173 89.5741 217.199C88.242 217.199 88.0978 215.702 88.0978 215.064C88.1779 213.776 88.5549 212.525 89.1994 211.407C89.8439 210.29 90.7383 209.337 91.8126 208.623C92.247 208.352 92.7433 208.196 93.2546 208.17ZM93.2546 207.366C92.6028 207.392 91.9687 207.586 91.4144 207.929C90.2152 208.711 89.2172 209.764 88.5013 211.004C87.7855 212.243 87.372 213.634 87.2944 215.064C87.2944 216.924 88.2214 218.002 89.5741 218.002C90.2259 217.977 90.86 217.783 91.4144 217.439C92.6136 216.658 93.6116 215.604 94.3274 214.365C95.0432 213.125 95.4567 211.734 95.5343 210.305C95.5343 208.444 94.6005 207.366 93.2546 207.366Z" fill="#263238"/>
<path d="M91.4897 35.0981C92.4511 34.5419 93.2339 34.9951 93.2339 36.1075C93.2013 36.7137 93.0265 37.3038 92.7235 37.8299C92.4205 38.356 91.9978 38.8033 91.4897 39.1356C90.5216 39.6918 89.7388 39.2455 89.7388 38.1263C89.7715 37.5193 89.9472 36.9286 90.2515 36.4024C90.5557 35.8762 90.98 35.4293 91.4897 35.0981Z" fill="black"/>
<path d="M82.0895 45.9058L100.993 34.988C101.803 34.5211 102.456 34.8575 102.456 35.7296C102.421 36.2194 102.27 36.694 102.015 37.1141C101.761 37.5343 101.411 37.8882 100.993 38.1466L82.0895 49.0713C81.2861 49.5313 80.6338 49.2017 80.6338 48.3297C80.6682 47.8395 80.8181 47.3645 81.071 46.9432C81.324 46.522 81.673 46.1665 82.0895 45.9058Z" fill="black"/>
<path d="M132.682 11.2439C132.497 9.87061 131.412 9.39682 130.107 10.1521L52.9823 54.6818C52.2107 55.1619 51.5767 55.8338 51.1421 56.6319L42.9022 51.8939C43.3395 51.0973 43.9759 50.4278 44.7493 49.9507L121.895 5.39362C122.704 4.98397 123.598 4.77051 124.504 4.77051C125.411 4.77051 126.305 4.98397 127.114 5.39362L130.107 7.11026C130.809 7.57323 131.402 8.18226 131.847 8.89569C132.291 9.60913 132.576 10.4101 132.682 11.2439Z" fill="#506DE4"/>
<g opacity="0.4">
<path d="M132.682 11.2439C132.497 9.87061 131.412 9.39682 130.107 10.1521L52.9821 54.6818C52.2105 55.1619 51.5765 55.8338 51.1418 56.6319L42.902 51.8939C43.3392 51.0973 43.9757 50.4278 44.7491 49.9507L121.895 5.39362C122.704 4.98397 123.598 4.77051 124.504 4.77051C125.411 4.77051 126.305 4.98397 127.113 5.39362L130.107 7.11026C130.809 7.57323 131.402 8.18226 131.846 8.89569C132.291 9.60913 132.576 10.4101 132.682 11.2439Z" fill="black"/>
</g>
<path d="M143.017 38.1543L67.9381 81.4479V237.168L72.1885 239.605L147.267 196.243V40.5851L143.017 38.1543Z" fill="#E0E0E0"/>
<path d="M147.274 194.492C147.274 195.913 146.271 196.82 145.035 197.527L74.454 238.301C73.2249 238.987 72.2224 238.438 72.2224 237.01V86.4192C72.2226 85.6383 72.4283 84.8713 72.8189 84.1951C73.2094 83.519 73.7709 82.9575 74.4472 82.567L145.035 41.7866C145.262 41.6549 145.519 41.5854 145.781 41.585C146.044 41.5845 146.301 41.6533 146.528 41.7842C146.755 41.9152 146.944 42.1037 147.075 42.3307C147.206 42.5578 147.274 42.8154 147.274 43.0775V194.492Z" fill="#FAFAFA"/>
<path d="M145.777 42.2402C146.002 42.2419 146.218 42.3322 146.377 42.4915C146.536 42.6508 146.626 42.8663 146.628 43.0916V194.492C146.628 195.447 146.038 196.209 144.712 196.971L74.1036 237.745C73.8984 237.878 73.6613 237.954 73.417 237.964C72.902 237.964 72.8265 237.367 72.8265 237.01V86.4196C72.8276 85.7518 73.0038 85.0961 73.3376 84.5177C73.6713 83.9394 74.1509 83.4587 74.7285 83.1236L145.358 42.3569C145.485 42.2818 145.629 42.2415 145.777 42.2402ZM145.777 41.6016C145.516 41.6017 145.261 41.6704 145.035 41.8007L74.4126 82.5949C73.7404 82.983 73.1814 83.5402 72.7911 84.2111C72.4009 84.882 72.1929 85.6434 72.1879 86.4196V237.01C72.1879 238.026 72.6891 238.61 73.4238 238.61C73.7767 238.594 74.1196 238.488 74.4195 238.301L145.035 197.527C146.271 196.841 147.274 195.914 147.274 194.492V43.0916C147.272 42.6958 147.113 42.3168 146.833 42.0376C146.552 41.7583 146.173 41.6016 145.777 41.6016Z" fill="#E0E0E0"/>
<path d="M145.035 41.7866L72.1879 83.8786V100.269L147.274 56.893V40.585C147.274 40.585 146.024 41.2236 145.035 41.7866Z" fill="#455A64"/>
<path d="M72.1879 224.184V239.606L147.274 196.244V180.835L72.1879 224.184Z" fill="#455A64"/>
<path d="M67.9373 97.8387L72.1877 100.276V83.879L67.9373 81.4482V97.8387Z" fill="#263238"/>
<path d="M147.267 40.5851L143.017 38.1543L67.9381 81.4479L72.1885 83.8787L147.267 40.5851Z" fill="#37474F"/>
<path d="M72.1877 224.162L67.9373 221.731V237.167L72.1877 239.605V224.162Z" fill="#263238"/>
<path d="M82.6936 82.4982C82.6873 82.4688 82.6873 82.4383 82.6936 82.4089V81.9763L82.007 82.3677C81.9658 82.3677 81.952 82.3677 81.952 82.3059V82.1548C81.9481 82.1252 81.9481 82.0952 81.952 82.0656C81.9473 82.0383 81.9473 82.0104 81.952 81.9832L82.673 80.0125V79.937C82.6854 79.9176 82.7018 79.9012 82.7211 79.8889L82.8172 79.8408C82.8172 79.8408 82.8653 79.8408 82.879 79.8408C82.8886 79.8722 82.8886 79.9056 82.879 79.937V81.4545L83.0301 81.3721C83.0301 81.3721 83.0782 81.3721 83.085 81.3721C83.0955 81.4032 83.0955 81.437 83.085 81.4682V81.5712C83.0935 81.6073 83.0935 81.6449 83.085 81.6811C83.081 81.6948 83.074 81.7075 83.0645 81.7182C83.055 81.7289 83.0433 81.7373 83.0301 81.7429L82.879 81.8321V82.2647C82.8875 82.3008 82.8875 82.3385 82.879 82.3746C82.8643 82.4022 82.8431 82.4257 82.8172 82.4433L82.7005 82.505C82.7005 82.505 82.7348 82.5119 82.6936 82.4982ZM82.6936 81.5781V80.5L82.2061 81.8733L82.6936 81.5781Z" fill="#FAFAFA"/>
<path d="M83.5313 81.7707C83.3718 81.5044 83.302 81.1939 83.3322 80.885C83.3244 80.5024 83.3921 80.1221 83.5313 79.7657C83.6378 79.4808 83.8358 79.2393 84.0944 79.079C84.1758 79.0222 84.2703 78.9867 84.3691 78.9761C84.4354 78.9507 84.5087 78.9507 84.5751 78.9761C84.5787 78.9823 84.5806 78.9894 84.5806 78.9966C84.5806 79.0039 84.5787 79.011 84.5751 79.0172C84.5775 79.0332 84.5775 79.0494 84.5751 79.0653L84.5133 79.2919C84.5173 79.3077 84.5173 79.3242 84.5133 79.34C84.4546 79.3215 84.3925 79.3168 84.3317 79.3263C84.2709 79.3359 84.2132 79.3593 84.1631 79.3949C83.9895 79.5051 83.8569 79.6691 83.7854 79.8618C83.6815 80.1237 83.6324 80.4042 83.6412 80.6858C83.6147 80.9234 83.6627 81.1633 83.7785 81.3725C83.8678 81.4823 83.9914 81.4892 84.1493 81.3725L84.3141 81.2489C84.3652 81.2061 84.4112 81.1578 84.4515 81.1047V80.418L84.1631 80.5828C84.1631 80.5828 84.115 80.5828 84.1081 80.5828C84.0977 80.5516 84.0977 80.5179 84.1081 80.4867V80.3906C84.0996 80.3544 84.0996 80.3168 84.1081 80.2807C84.1121 80.267 84.1191 80.2543 84.1286 80.2436C84.1381 80.2329 84.1499 80.2245 84.1631 80.2189L84.6163 79.958C84.6163 79.958 84.6712 79.958 84.6849 79.958C84.6956 79.9938 84.6956 80.032 84.6849 80.0678V81.0772C84.6886 81.1069 84.6886 81.1368 84.6849 81.1665C84.6901 81.1868 84.6901 81.208 84.6849 81.2283C84.5576 81.4516 84.3726 81.6365 84.1493 81.7639C83.8541 81.9355 83.6618 81.9287 83.5313 81.7707Z" fill="#FAFAFA"/>
<path d="M144.06 44.4229C144.049 44.3985 144.032 44.3768 144.012 44.359C143.991 44.3412 143.968 44.3277 143.942 44.3193C143.916 44.311 143.889 44.3079 143.862 44.3104C143.835 44.3129 143.809 44.3208 143.786 44.3337L141.06 45.9061C140.951 46.0129 140.868 46.1419 140.815 46.2842C140.761 46.4264 140.739 46.5786 140.751 46.7301V48.2476C140.741 48.418 140.782 48.5874 140.867 48.7351C140.893 48.7795 140.931 48.8153 140.977 48.8381C141.002 48.8498 141.029 48.8558 141.056 48.8558C141.083 48.8558 141.11 48.8498 141.135 48.8381L143.84 47.2794C143.951 47.1743 144.037 47.0458 144.092 46.9032C144.146 46.7606 144.168 46.6076 144.156 46.4554V44.9311C144.176 44.7559 144.143 44.5787 144.06 44.4229ZM140.963 48.5429C140.928 48.4729 140.911 48.3947 140.915 48.3163V46.7919C140.909 46.6767 140.927 46.5614 140.969 46.4537C141.01 46.346 141.074 46.2483 141.156 46.167L143.861 44.6152C143.875 44.6074 143.89 44.6032 143.906 44.6032C143.921 44.6032 143.937 44.6074 143.95 44.6152C143.983 44.6859 143.998 44.764 143.992 44.8418V46.3593C143.999 46.4757 143.981 46.5922 143.94 46.7012C143.898 46.8101 143.834 46.909 143.751 46.991L141.06 48.5429C141.044 48.5522 141.027 48.556 141.009 48.5535C140.991 48.551 140.975 48.5424 140.963 48.5291V48.5429Z" fill="#FAFAFA"/>
<path d="M143.737 45.062V46.3598C143.735 46.4766 143.703 46.5909 143.644 46.6918C143.585 46.7928 143.501 46.877 143.401 46.9366L141.197 48.2C141.188 48.2048 141.179 48.2074 141.169 48.2074C141.159 48.2073 141.15 48.2048 141.142 48.1999C141.133 48.195 141.126 48.188 141.121 48.1796C141.117 48.1712 141.114 48.1616 141.114 48.1519V46.7786C141.109 46.6936 141.122 46.6085 141.153 46.5291C141.184 46.4496 141.232 46.3778 141.293 46.3186L143.634 44.9453C143.65 44.9316 143.67 44.9246 143.691 44.9259C143.711 44.9272 143.73 44.9366 143.744 44.9521C143.758 44.9676 143.765 44.9879 143.763 45.0085C143.762 45.0291 143.753 45.0483 143.737 45.062Z" fill="#FAFAFA"/>
<path d="M144.28 44.8621C144.349 44.814 144.41 45.0337 144.41 45.3427V45.6243C144.44 45.862 144.392 46.1028 144.273 46.3109L144.136 46.407V44.9651L144.28 44.8621Z" fill="#FAFAFA"/>
<path d="M89.2581 78.3026C89.2613 78.4636 89.227 78.6231 89.1579 78.7685C89.0887 78.9139 88.9867 79.0412 88.8598 79.1403C88.647 79.2639 88.4684 79.0922 88.4684 78.7627C88.4655 78.6024 88.4992 78.4436 88.567 78.2984C88.6349 78.1532 88.735 78.0255 88.8598 77.9249C89.0796 77.8013 89.2581 77.973 89.2581 78.3026Z" fill="#FAFAFA"/>
<path d="M88.8732 76.9298C88.4168 77.2659 88.0934 77.7522 87.96 78.3031C87.9256 78.4267 87.96 78.5434 88.0012 78.5778C88.0767 78.6258 88.1866 78.5297 88.2278 78.3718C88.3209 77.9825 88.5498 77.6393 88.8732 77.4036C88.9274 77.3631 88.9906 77.3366 89.0575 77.3264C89.1243 77.3161 89.1926 77.3225 89.2564 77.3449C89.3201 77.3672 89.3774 77.405 89.4232 77.4547C89.4689 77.5045 89.5017 77.5648 89.5187 77.6302C89.5668 77.7332 89.6766 77.7057 89.7521 77.5684C89.7813 77.5205 89.8001 77.467 89.8072 77.4114C89.8143 77.3558 89.8096 77.2993 89.7933 77.2457C89.7662 77.1544 89.7177 77.071 89.6519 77.0023C89.586 76.9336 89.5047 76.8816 89.4146 76.8507C89.3246 76.8198 89.2285 76.8109 89.1344 76.8246C89.0402 76.8384 88.9507 76.8744 88.8732 76.9298Z" fill="#FAFAFA"/>
<path d="M88.8736 75.9616C88.2031 76.4563 87.7193 77.1627 87.5002 77.9666C87.459 78.0971 87.5002 78.2275 87.5002 78.2687C87.5758 78.3168 87.6788 78.2207 87.7268 78.0765C87.911 77.4148 88.3155 76.8358 88.8736 76.4354C88.9666 76.3684 89.0735 76.3231 89.1864 76.3028C89.2992 76.2825 89.4152 76.2876 89.5258 76.3179C89.6363 76.3482 89.7387 76.4028 89.8255 76.4778C89.9123 76.5528 89.9811 76.6462 90.0271 76.7512C90.0752 76.8405 90.1782 76.813 90.2537 76.6826C90.278 76.6286 90.2905 76.5701 90.2905 76.5109C90.2905 76.4517 90.278 76.3932 90.2537 76.3392C90.1958 76.2162 90.112 76.1071 90.0079 76.0195C89.9038 75.932 89.7819 75.8681 89.6507 75.8322C89.5195 75.7963 89.3821 75.7893 89.2479 75.8116C89.1138 75.8339 88.986 75.8851 88.8736 75.9616Z" fill="#FAFAFA"/>
<path d="M106.376 67.1934C106.369 67.1711 106.369 67.1469 106.376 67.1247C106.369 67.0953 106.369 67.0648 106.376 67.0354L106.94 66.0192C106.953 65.9947 106.969 65.9717 106.988 65.9505C106.998 65.928 107.015 65.9089 107.036 65.8956L107.235 65.7789C107.243 65.774 107.253 65.7715 107.262 65.7715C107.272 65.7715 107.281 65.774 107.29 65.7789C107.298 65.7987 107.298 65.8208 107.29 65.8406V68.4362C107.296 68.4656 107.296 68.4961 107.29 68.5255C107.277 68.5504 107.258 68.5717 107.235 68.5873L107.029 68.7109C107.02 68.7157 107.011 68.7182 107.001 68.7182C106.992 68.7182 106.982 68.7157 106.974 68.7109C106.966 68.6911 106.966 68.6689 106.974 68.6491V66.6646L106.603 67.3513C106.599 67.3623 106.593 67.3722 106.584 67.3805C106.576 67.3888 106.566 67.3952 106.555 67.3994C106.555 67.3994 106.521 67.3994 106.507 67.3994L106.376 67.1934Z" fill="#FAFAFA"/>
<path d="M107.695 66.417C107.695 66.417 107.695 66.3758 107.695 66.3414C107.692 66.3141 107.692 66.2864 107.695 66.2591L108.265 65.2428L108.306 65.1741C108.31 65.1632 108.316 65.1532 108.325 65.1449C108.333 65.1366 108.343 65.1302 108.354 65.1261L108.553 65.0025C108.561 64.9977 108.571 64.9951 108.58 64.9951C108.59 64.9951 108.6 64.9977 108.608 65.0025C108.616 65.0223 108.616 65.0444 108.608 65.0643V67.6598C108.614 67.6892 108.614 67.7197 108.608 67.7491C108.595 67.774 108.576 67.7953 108.553 67.8109L108.347 67.9345C108.34 67.9395 108.332 67.9422 108.323 67.9422C108.314 67.9422 108.306 67.9395 108.299 67.9345C108.292 67.9146 108.292 67.8926 108.299 67.8727V65.8883L107.935 66.5749C107.922 66.5964 107.903 66.6132 107.88 66.623C107.88 66.623 107.88 66.623 107.832 66.623L107.695 66.417Z" fill="#FAFAFA"/>
<path d="M109.425 65.3044C109.433 65.2977 109.442 65.2939 109.453 65.2939C109.463 65.2939 109.473 65.2977 109.48 65.3044C109.488 65.3243 109.488 65.3464 109.48 65.3662V65.7576C109.487 65.787 109.487 65.8175 109.48 65.8469C109.467 65.8718 109.448 65.8931 109.425 65.9087L109.185 66.046C109.185 66.046 109.15 66.046 109.137 66.046C109.129 66.0262 109.129 66.004 109.137 65.9842V65.586C109.131 65.5565 109.131 65.5262 109.137 65.4967C109.147 65.4722 109.164 65.4509 109.185 65.4349L109.425 65.3044ZM109.425 66.7121C109.433 66.7053 109.442 66.7016 109.453 66.7016C109.463 66.7016 109.473 66.7053 109.48 66.7121C109.485 66.723 109.487 66.7346 109.487 66.7464C109.487 66.7582 109.485 66.7699 109.48 66.7807V67.1927C109.486 67.2222 109.486 67.2526 109.48 67.282C109.467 67.3069 109.448 67.3282 109.425 67.3438L109.185 67.4811C109.185 67.4811 109.15 67.4811 109.137 67.4811C109.129 67.4589 109.129 67.4347 109.137 67.4125V67.0211C109.13 66.9917 109.13 66.9612 109.137 66.9318C109.147 66.9073 109.164 66.886 109.185 66.87L109.425 66.7121Z" fill="#FAFAFA"/>
<path d="M110.847 66.5061C110.84 66.5112 110.831 66.5139 110.823 66.5139C110.814 66.5139 110.806 66.5112 110.799 66.5061C110.791 66.4863 110.791 66.4642 110.799 66.4443V65.9568L109.988 66.4237C109.981 66.4288 109.973 66.4315 109.964 66.4315C109.956 66.4315 109.947 66.4288 109.94 66.4237C109.932 66.4039 109.932 66.3818 109.94 66.3619V66.0735C109.934 66.0395 109.934 66.0046 109.94 65.9705C109.938 65.9317 109.938 65.8927 109.94 65.8538L110.744 63.8625C110.761 63.7986 110.797 63.7413 110.847 63.6977L111.046 63.581C111.053 63.576 111.061 63.5732 111.07 63.5732C111.078 63.5732 111.087 63.576 111.094 63.581C111.102 63.6008 111.102 63.623 111.094 63.6428V65.2496L111.32 65.1191C111.327 65.1141 111.336 65.1114 111.344 65.1114C111.353 65.1114 111.361 65.1141 111.368 65.1191C111.376 65.1389 111.376 65.1611 111.368 65.1809V65.4693C111.374 65.4988 111.374 65.5291 111.368 65.5585C111.368 65.5585 111.368 65.6066 111.32 65.6135L111.094 65.7439V66.2315C111.1 66.2609 111.1 66.2913 111.094 66.3207C111.083 66.3452 111.067 66.3665 111.046 66.3825L110.847 66.5061ZM110.778 65.4487V64.5904L110.332 65.7027L110.778 65.4487Z" fill="#FAFAFA"/>
<path d="M111.87 63.2102C111.863 63.1809 111.863 63.1503 111.87 63.121C111.88 63.0965 111.896 63.0752 111.918 63.0592L112.9 62.4961C112.9 62.4961 112.9 62.4961 112.948 62.4961C112.956 62.5159 112.956 62.5381 112.948 62.5579V62.8463C112.954 62.8757 112.954 62.9061 112.948 62.9356C112.937 62.96 112.921 62.9813 112.9 62.9973L112.165 63.4162V63.9518C112.206 63.8993 112.255 63.853 112.309 63.8145L112.419 63.7458C112.501 63.6908 112.595 63.6577 112.694 63.6497C112.73 63.6431 112.768 63.644 112.805 63.6522C112.841 63.6605 112.876 63.676 112.906 63.6977C112.974 63.7533 113.024 63.8272 113.051 63.9106C113.09 64.0278 113.108 64.151 113.106 64.2745C113.106 64.4341 113.087 64.5931 113.051 64.7483C113.016 64.8821 112.965 65.0112 112.9 65.1328C112.844 65.2415 112.772 65.341 112.687 65.4281C112.609 65.5125 112.519 65.5843 112.419 65.641C112.325 65.6996 112.22 65.7371 112.11 65.7508C112.035 65.7619 111.959 65.7448 111.897 65.7028C111.837 65.657 111.792 65.5951 111.767 65.5242C111.739 65.4351 111.723 65.3428 111.718 65.2496C111.712 65.2202 111.712 65.1897 111.718 65.1603C111.731 65.1372 111.747 65.1163 111.767 65.0985L111.979 64.9818C111.986 64.9768 111.995 64.9741 112.003 64.9741C112.012 64.9741 112.02 64.9768 112.027 64.9818C112.031 64.9999 112.031 65.0186 112.027 65.0367C112.036 65.0806 112.052 65.1225 112.076 65.1603C112.098 65.1838 112.126 65.2005 112.158 65.2084C112.189 65.2179 112.223 65.2179 112.254 65.2084C112.296 65.1987 112.336 65.1799 112.371 65.1534C112.474 65.0909 112.557 65.0004 112.611 64.8925C112.673 64.7714 112.703 64.637 112.7 64.5011C112.707 64.4557 112.703 64.4093 112.687 64.3662C112.672 64.323 112.645 64.2844 112.611 64.2539C112.576 64.2288 112.534 64.2152 112.491 64.2152C112.448 64.2152 112.406 64.2288 112.371 64.2539C112.324 64.2744 112.281 64.3049 112.247 64.3432L112.22 64.4462L112.172 64.5217L112.11 64.5698L111.87 64.7071C111.87 64.7071 111.87 64.7071 111.821 64.7071C111.813 64.6873 111.813 64.6651 111.821 64.6453L111.87 63.2102Z" fill="#FAFAFA"/>
<path d="M75.2159 87.154V86.3163L75.9438 85.8975V86.7352L75.2159 87.154Z" fill="#FAFAFA"/>
<path d="M76.3075 86.5289V84.8534L77.0285 84.4346V86.11L76.3075 86.5289Z" fill="#FAFAFA"/>
<path d="M77.3926 85.8968V83.3905L78.1204 82.9717V85.478L77.3926 85.8968Z" fill="#FAFAFA"/>
<path d="M78.4847 85.2727V81.9218L79.2057 81.5029V84.8538L78.4847 85.2727Z" fill="#FAFAFA"/>
<path d="M136.658 49.4567L139.288 47.1221L138.478 50.5485L138.093 49.1271L136.658 49.4567Z" fill="#FAFAFA"/>
<path opacity="0.5" d="M77.8389 88.4793L141.622 51.5853C142.124 51.2969 142.536 51.5304 142.536 52.1141V54.95C142.516 55.2668 142.423 55.5749 142.265 55.85C142.106 56.1252 141.887 56.36 141.622 56.5361L77.8389 93.4301C77.3308 93.7185 76.9257 93.4851 76.9257 92.9014V90.0655C76.9422 89.7479 77.0335 89.4386 77.1922 89.163C77.3509 88.8873 77.5725 88.6531 77.8389 88.4793Z" fill="#FAFAFA"/>
<path d="M100.162 77.0396C100.246 76.987 100.345 76.9629 100.444 76.9709C100.531 76.9838 100.61 77.0307 100.663 77.1014C100.732 77.1835 100.781 77.2796 100.808 77.3829C100.845 77.5124 100.863 77.6465 100.863 77.7812C100.866 77.8383 100.866 77.8957 100.863 77.9528C100.866 78.01 100.866 78.0673 100.863 78.1245C100.86 78.2816 100.842 78.4381 100.808 78.5914C100.774 78.7445 100.726 78.894 100.663 79.0378C100.607 79.1726 100.533 79.2995 100.444 79.4154C100.369 79.5214 100.273 79.6103 100.162 79.6763C100.107 79.7098 100.046 79.7353 99.9837 79.7519C99.9381 79.7587 99.8918 79.7587 99.8463 79.7519C99.8148 79.7597 99.7818 79.7597 99.7502 79.7519C99.7248 79.737 99.7016 79.7185 99.6815 79.697V79.8068C99.6903 79.8429 99.6903 79.8806 99.6815 79.9167C99.6773 79.9321 99.6695 79.9464 99.6588 79.9583C99.648 79.9702 99.6347 79.9795 99.6197 79.9853L99.3794 80.1295C99.3719 80.1363 99.3621 80.14 99.3519 80.14C99.3418 80.14 99.332 80.1363 99.3245 80.1295C99.3185 80.1179 99.3153 80.1049 99.3153 80.0918C99.3153 80.0786 99.3185 80.0657 99.3245 80.054V76.8061C99.3142 76.7702 99.3142 76.7322 99.3245 76.6963C99.3351 76.6663 99.3542 76.6401 99.3794 76.6207L99.6197 76.4834C99.6197 76.4834 99.6678 76.4834 99.6815 76.4834C99.6876 76.4951 99.6907 76.508 99.6907 76.5212C99.6907 76.5343 99.6876 76.5473 99.6815 76.5589V77.5958C99.7018 77.551 99.7248 77.5074 99.7502 77.4653C99.7773 77.412 99.8095 77.3614 99.8463 77.3143C99.8865 77.2591 99.9325 77.2084 99.9837 77.1632C100.037 77.1133 100.097 77.0716 100.162 77.0396ZM100.457 78.0558C100.463 77.9863 100.454 77.9164 100.431 77.8504C100.409 77.7843 100.373 77.7234 100.327 77.6713C100.289 77.6434 100.243 77.6284 100.197 77.6284C100.15 77.6284 100.104 77.6434 100.066 77.6713C99.9521 77.7421 99.8614 77.8448 99.8051 77.9666C99.7272 78.1126 99.6848 78.2749 99.6815 78.4404C99.6776 78.5021 99.6776 78.564 99.6815 78.6258C99.6774 78.6852 99.6774 78.7449 99.6815 78.8043C99.676 78.866 99.6841 78.9282 99.7055 78.9864C99.7269 79.0446 99.7609 79.0973 99.8051 79.1408C99.8425 79.1697 99.8884 79.1854 99.9356 79.1854C99.9828 79.1854 100.029 79.1697 100.066 79.1408C100.18 79.0699 100.271 78.9673 100.327 78.8455C100.407 78.6802 100.451 78.5001 100.457 78.3168V78.0558Z" fill="#FAFAFA"/>
<path d="M102.16 76.5247C102.038 76.5861 101.941 76.6881 101.886 76.8131C101.825 76.9611 101.797 77.1203 101.803 77.28V78.5503C101.809 78.5844 101.809 78.6193 101.803 78.6533C101.792 78.6849 101.77 78.7116 101.741 78.7289L101.501 78.8662C101.492 78.8724 101.481 78.8757 101.47 78.8757C101.459 78.8757 101.448 78.8724 101.439 78.8662C101.43 78.8395 101.43 78.8105 101.439 78.7838V76.511C101.433 76.477 101.433 76.442 101.439 76.408C101.452 76.3775 101.474 76.3514 101.501 76.3324L101.741 76.1951C101.75 76.1878 101.761 76.1839 101.772 76.1839C101.784 76.1839 101.795 76.1878 101.803 76.1951C101.812 76.2219 101.812 76.2508 101.803 76.2775V76.3874C101.85 76.2876 101.908 76.1932 101.975 76.1058C102.045 76.0235 102.128 75.9538 102.222 75.8998L102.366 75.8174C102.369 75.8132 102.374 75.8097 102.378 75.8073C102.383 75.805 102.388 75.8037 102.394 75.8037C102.399 75.8037 102.404 75.805 102.409 75.8073C102.414 75.8097 102.418 75.8132 102.421 75.8174C102.427 75.8291 102.43 75.8421 102.43 75.8552C102.43 75.8684 102.427 75.8813 102.421 75.893V76.2157C102.43 76.2518 102.43 76.2895 102.421 76.3256C102.41 76.3536 102.391 76.3776 102.366 76.3942L102.16 76.5247Z" fill="#FAFAFA"/>
<path d="M103.575 75.0688C103.669 75.0126 103.775 74.9796 103.884 74.9727C103.974 74.973 104.062 75.0046 104.131 75.0619C104.208 75.1279 104.265 75.2133 104.296 75.3091C104.339 75.4305 104.362 75.558 104.365 75.6868C104.369 75.7233 104.369 75.7601 104.365 75.7966V76.0644C104.369 76.1033 104.369 76.1424 104.365 76.1812C104.359 76.3366 104.336 76.4908 104.296 76.6412C104.256 76.7905 104.2 76.9354 104.131 77.0738C104.065 77.2075 103.982 77.3321 103.884 77.4446C103.796 77.5481 103.692 77.6362 103.575 77.7055C103.48 77.7652 103.371 77.8006 103.259 77.8085C103.17 77.8051 103.083 77.7739 103.012 77.7193C102.936 77.6533 102.879 77.5679 102.847 77.4721C102.807 77.3522 102.784 77.2274 102.779 77.1013C102.779 77.0669 102.779 77.0326 102.779 76.9914V76.7168C102.779 76.6756 102.779 76.6344 102.779 76.6069C102.784 76.4514 102.807 76.2971 102.847 76.1468C102.887 75.995 102.942 75.8477 103.012 75.7074C103.078 75.5737 103.161 75.4491 103.259 75.3366C103.348 75.2293 103.455 75.1386 103.575 75.0688ZM103.96 75.9477C103.955 75.8702 103.938 75.7939 103.912 75.7211C103.891 75.6797 103.86 75.6442 103.822 75.6181C103.785 75.6045 103.743 75.6045 103.706 75.6181C103.658 75.6263 103.614 75.6451 103.575 75.673C103.526 75.6964 103.482 75.7291 103.445 75.7692C103.4 75.8127 103.361 75.8611 103.328 75.9134C103.286 75.9797 103.254 76.0513 103.232 76.1262C103.209 76.2186 103.196 76.3128 103.191 76.4078C103.187 76.4397 103.187 76.472 103.191 76.5039V76.7511C103.186 76.7807 103.186 76.8108 103.191 76.8404C103.192 76.9176 103.206 76.994 103.232 77.067C103.246 77.11 103.275 77.1464 103.315 77.1692C103.354 77.192 103.4 77.1996 103.445 77.1906C103.49 77.1768 103.534 77.1584 103.575 77.1356L103.706 77.0395C103.749 76.9931 103.788 76.9425 103.822 76.8884C103.86 76.821 103.89 76.7496 103.912 76.6756C103.937 76.5858 103.953 76.4938 103.96 76.4009V75.9614V75.9477Z" fill="#FAFAFA"/>
<path d="M106.452 74.9719L106.74 73.4064C106.738 73.3766 106.738 73.3468 106.74 73.3171C106.743 73.3001 106.75 73.2842 106.761 73.2709C106.772 73.2576 106.786 73.2475 106.802 73.2416L107.043 73.1042C107.05 73.0975 107.06 73.0938 107.07 73.0938C107.08 73.0938 107.09 73.0975 107.097 73.1042C107.103 73.1172 107.106 73.1313 107.106 73.1454C107.106 73.1596 107.103 73.1736 107.097 73.1866V73.221L106.617 75.7479C106.619 75.7799 106.619 75.812 106.617 75.844C106.606 75.8759 106.584 75.9028 106.555 75.9195L106.315 76.0569C106.278 76.0569 106.257 76.0569 106.253 76.0569C106.249 76.0341 106.249 76.0109 106.253 75.9882L105.944 74.8689L105.642 76.3453C105.642 76.3453 105.642 76.4139 105.642 76.4482C105.632 76.4805 105.61 76.5075 105.58 76.5238L105.34 76.6611C105.34 76.6611 105.292 76.6611 105.278 76.6611C105.274 76.6407 105.274 76.6197 105.278 76.5993L104.797 74.6286C104.791 74.5923 104.791 74.5551 104.797 74.5187C104.812 74.4896 104.833 74.4639 104.859 74.4432L105.099 74.3059C105.099 74.3059 105.154 74.3059 105.161 74.3059C105.166 74.3262 105.166 74.3474 105.161 74.3677L105.449 75.5968L105.752 74.0244C105.749 73.9923 105.749 73.9602 105.752 73.9282C105.765 73.8994 105.786 73.8754 105.813 73.8596L106.054 73.7154C106.061 73.7086 106.071 73.7049 106.081 73.7049C106.091 73.7049 106.101 73.7086 106.109 73.7154C106.113 73.7357 106.113 73.7568 106.109 73.7772L106.452 74.9719Z" fill="#FAFAFA"/>
<path d="M108.484 74.094C108.489 74.0806 108.49 74.0661 108.487 74.0523C108.483 74.0385 108.476 74.0258 108.466 74.0158C108.456 74.0058 108.444 73.9988 108.43 73.9956C108.416 73.9924 108.402 73.9932 108.388 73.9979H108.237L108.004 74.0528C107.929 74.0726 107.851 74.0726 107.777 74.0528C107.72 74.0409 107.667 74.0122 107.626 73.9704C107.587 73.9175 107.562 73.8564 107.55 73.7919C107.542 73.7051 107.542 73.6177 107.55 73.5309C107.551 73.4266 107.565 73.3229 107.592 73.2219C107.622 73.1073 107.666 72.9967 107.722 72.8923C107.78 72.7866 107.849 72.6876 107.928 72.5971C108.007 72.5071 108.099 72.4306 108.203 72.3705C108.286 72.3168 108.379 72.2816 108.477 72.2675C108.544 72.2455 108.616 72.2455 108.683 72.2675C108.742 72.2911 108.791 72.3349 108.821 72.3911C108.851 72.4535 108.87 72.521 108.876 72.5902C108.884 72.6263 108.884 72.664 108.876 72.7001C108.865 72.732 108.843 72.7589 108.814 72.7756L108.567 72.9129C108.556 72.919 108.544 72.9221 108.532 72.9221C108.52 72.9221 108.508 72.919 108.498 72.9129H108.45C108.423 72.9049 108.394 72.9049 108.368 72.9129C108.318 72.9217 108.272 72.9404 108.23 72.9679C108.165 73.0062 108.107 73.0549 108.059 73.1121C108.012 73.1677 107.987 73.2386 107.99 73.3112C107.99 73.3455 107.99 73.373 107.99 73.3867C108 73.3922 108.012 73.395 108.024 73.395C108.036 73.395 108.048 73.3922 108.059 73.3867C108.104 73.3923 108.15 73.3923 108.196 73.3867L108.422 73.3318C108.488 73.3034 108.56 73.2942 108.631 73.3051C108.701 73.3161 108.767 73.3467 108.821 73.3936C108.906 73.5157 108.945 73.6642 108.931 73.8125C108.93 73.919 108.916 74.0251 108.889 74.1283C108.852 74.2417 108.807 74.3519 108.752 74.4579C108.687 74.5662 108.611 74.6674 108.525 74.76C108.44 74.853 108.34 74.9318 108.23 74.9935C108.142 75.0525 108.041 75.0901 107.935 75.1034C107.863 75.1252 107.787 75.1252 107.715 75.1034C107.658 75.0677 107.611 75.0181 107.578 74.9592C107.547 74.8947 107.531 74.8245 107.53 74.7532C107.521 74.7171 107.521 74.6793 107.53 74.6433C107.54 74.6114 107.562 74.5845 107.592 74.5678L107.832 74.4236C107.866 74.4236 107.887 74.4236 107.901 74.4236L107.956 74.4648C107.982 74.4724 108.011 74.4724 108.038 74.4648C108.097 74.4585 108.154 74.4373 108.203 74.403L108.299 74.3343C108.334 74.3106 108.366 74.283 108.395 74.2519C108.424 74.2221 108.447 74.1872 108.464 74.1489C108.473 74.1318 108.48 74.1132 108.484 74.094Z" fill="#FAFAFA"/>
<path d="M109.316 73.0774C109.313 72.8929 109.332 72.7086 109.37 72.5281C109.402 72.3537 109.453 72.1833 109.522 72.02C109.586 71.8683 109.669 71.7253 109.769 71.5943C109.857 71.4786 109.967 71.3808 110.091 71.3059C110.187 71.2429 110.3 71.2139 110.414 71.2235C110.508 71.236 110.595 71.2795 110.661 71.3471C110.733 71.4381 110.785 71.5434 110.812 71.6561C110.853 71.7989 110.872 71.9471 110.867 72.0955V72.3153C110.875 72.3515 110.875 72.3889 110.867 72.4251C110.852 72.4543 110.831 72.48 110.806 72.5006L109.748 73.1118C109.736 73.1707 109.736 73.2314 109.748 73.2903C109.766 73.3295 109.795 73.3629 109.831 73.3864C109.868 73.4001 109.91 73.4001 109.947 73.3864C109.996 73.3798 110.043 73.3635 110.085 73.3384C110.196 73.2738 110.288 73.1815 110.352 73.0706C110.37 73.0391 110.391 73.0092 110.414 72.9813L110.469 72.9332L110.723 72.789C110.723 72.789 110.771 72.789 110.785 72.789C110.799 72.789 110.785 72.8302 110.785 72.8714C110.774 72.9395 110.755 73.0063 110.73 73.0706C110.695 73.1735 110.649 73.2724 110.593 73.3658C110.526 73.473 110.45 73.5741 110.366 73.668C110.278 73.769 110.173 73.8549 110.057 73.922C109.961 73.9838 109.849 74.015 109.734 74.0113C109.686 74.0081 109.64 73.9948 109.597 73.9724C109.554 73.9499 109.517 73.9187 109.487 73.8808C109.411 73.7871 109.36 73.6764 109.336 73.5581C109.308 73.3995 109.301 73.2379 109.316 73.0774ZM110.091 71.8964C110.03 71.9282 109.976 71.9727 109.934 72.0269C109.891 72.0804 109.855 72.1379 109.824 72.1985C109.824 72.2603 109.776 72.3221 109.755 72.3839C109.734 72.4457 109.755 72.5007 109.755 72.5556L110.442 72.1367C110.445 72.091 110.445 72.0451 110.442 71.9994C110.43 71.9566 110.408 71.9168 110.38 71.8827C110.367 71.8686 110.351 71.8577 110.333 71.8506C110.315 71.8434 110.296 71.8403 110.277 71.8415C110.21 71.836 110.144 71.8556 110.091 71.8964Z" fill="#FAFAFA"/>
<path d="M112.145 70.7566C112.027 70.8235 111.931 70.9238 111.87 71.045C111.809 71.1929 111.781 71.3521 111.787 71.5119V72.7822C111.797 72.8182 111.797 72.856 111.787 72.8921C111.777 72.924 111.755 72.9508 111.726 72.9676L111.485 73.1049C111.482 73.1092 111.478 73.1127 111.473 73.115C111.468 73.1174 111.463 73.1187 111.458 73.1187C111.453 73.1187 111.447 73.1174 111.443 73.115C111.438 73.1127 111.434 73.1092 111.43 73.1049C111.424 73.0932 111.421 73.0803 111.421 73.0672C111.421 73.054 111.424 73.0411 111.43 73.0294V70.7566C111.42 70.7207 111.42 70.6826 111.43 70.6467C111.441 70.6167 111.46 70.5905 111.485 70.5712L111.726 70.4338C111.726 70.4338 111.774 70.4338 111.787 70.4338C111.794 70.4455 111.797 70.4585 111.797 70.4716C111.797 70.4847 111.794 70.4977 111.787 70.5094V70.6261C111.836 70.5255 111.896 70.431 111.966 70.3446C112.035 70.2638 112.116 70.1944 112.206 70.1386L112.351 70.0562C112.36 70.0513 112.371 70.0488 112.381 70.0488C112.392 70.0488 112.403 70.0513 112.412 70.0562C112.421 70.0806 112.421 70.1073 112.412 70.1317V70.4544C112.419 70.4907 112.419 70.528 112.412 70.5643C112.397 70.5934 112.376 70.6191 112.351 70.6398L112.145 70.7566Z" fill="#FAFAFA"/>
<path d="M113.023 71.4566C113.033 71.4517 113.043 71.4492 113.054 71.4492C113.065 71.4492 113.075 71.4517 113.085 71.4566C113.094 71.4809 113.094 71.5077 113.085 71.5321V72.0128C113.091 72.0491 113.091 72.0863 113.085 72.1226C113.068 72.1504 113.047 72.1759 113.023 72.1981L112.728 72.3629C112.719 72.3691 112.708 72.3725 112.697 72.3725C112.686 72.3725 112.675 72.3691 112.666 72.3629C112.658 72.3361 112.658 72.3074 112.666 72.2805V71.8068C112.659 71.7705 112.659 71.7332 112.666 71.6969C112.681 71.6677 112.702 71.642 112.728 71.6214L113.023 71.4566Z" fill="#FAFAFA"/>
<path d="M113.999 70.201C113.995 70.2581 113.995 70.3155 113.999 70.3726C113.994 70.4275 113.994 70.4825 113.999 70.5374C114.001 70.6168 114.015 70.6954 114.04 70.7709C114.056 70.82 114.088 70.8631 114.129 70.8945C114.163 70.9192 114.204 70.9314 114.246 70.9288C114.292 70.9208 114.336 70.9046 114.376 70.8807C114.425 70.8561 114.469 70.8236 114.507 70.7846C114.544 70.7555 114.576 70.7207 114.603 70.6816C114.626 70.6418 114.647 70.6005 114.665 70.558C114.665 70.5168 114.699 70.4687 114.719 70.4207L114.761 70.3108C114.774 70.2787 114.795 70.2504 114.822 70.2284L115.063 70.0911C115.067 70.0867 115.071 70.0832 115.077 70.0808C115.082 70.0784 115.088 70.0771 115.094 70.0771C115.1 70.0771 115.105 70.0784 115.111 70.0808C115.116 70.0832 115.121 70.0867 115.125 70.0911C115.131 70.1028 115.134 70.1157 115.134 70.1288C115.134 70.142 115.131 70.1549 115.125 70.1666C115.115 70.2592 115.099 70.351 115.077 70.4413C115.042 70.5665 114.996 70.6882 114.939 70.8052C114.873 70.9351 114.792 71.0572 114.699 71.1691C114.6 71.287 114.482 71.3869 114.349 71.4644C114.255 71.5261 114.145 71.5572 114.033 71.5537C113.943 71.5474 113.859 71.5111 113.793 71.4507C113.718 71.3773 113.662 71.2881 113.628 71.1897C113.589 71.0626 113.566 70.9312 113.559 70.7983C113.555 70.7366 113.555 70.6747 113.559 70.6129C113.555 70.5443 113.555 70.4756 113.559 70.4069C113.566 70.2493 113.589 70.0928 113.628 69.94C113.666 69.7834 113.721 69.6314 113.793 69.4868C113.855 69.3483 113.936 69.2189 114.033 69.1023C114.121 68.9927 114.228 68.8997 114.349 68.8276C114.453 68.7599 114.574 68.7219 114.699 68.7178C114.787 68.7197 114.871 68.7511 114.939 68.807C114.999 68.863 115.045 68.9308 115.077 69.0062C115.101 69.0797 115.117 69.1557 115.125 69.2328C115.134 69.2665 115.134 69.3021 115.125 69.3358C115.112 69.3664 115.09 69.3926 115.063 69.4113L114.822 69.5486C114.819 69.553 114.814 69.5565 114.809 69.5589C114.803 69.5613 114.797 69.5626 114.792 69.5626C114.786 69.5626 114.78 69.5613 114.775 69.5589C114.769 69.5565 114.765 69.553 114.761 69.5486L114.719 69.4868C114.703 69.4604 114.685 69.4352 114.665 69.4113C114.647 69.3916 114.626 69.3753 114.603 69.3632H114.507C114.461 69.3763 114.417 69.3947 114.376 69.4182C114.326 69.4467 114.282 69.4839 114.246 69.528C114.198 69.5763 114.159 69.632 114.129 69.6928C114.093 69.7633 114.063 69.8368 114.04 69.9126C114.018 70.0074 114.005 70.1039 113.999 70.201Z" fill="#FAFAFA"/>
<path d="M116.381 67.6802C116.475 67.6173 116.584 67.5817 116.697 67.5771C116.785 67.5785 116.869 67.61 116.937 67.6664C117.009 67.7358 117.066 67.8202 117.102 67.9136C117.147 68.0343 117.171 68.1623 117.17 68.2913C117.174 68.3278 117.174 68.3646 117.17 68.4011V68.6758C117.174 68.7123 117.174 68.7491 117.17 68.7857C117.164 68.9411 117.141 69.0953 117.102 69.2457C117.061 69.395 117.006 69.5399 116.937 69.6783C116.87 69.8102 116.79 69.9345 116.697 70.0491C116.607 70.1531 116.5 70.2413 116.381 70.31C116.286 70.3697 116.177 70.4051 116.065 70.413C115.974 70.4158 115.886 70.3839 115.818 70.3238C115.743 70.2591 115.686 70.1763 115.653 70.0834C115.611 69.9619 115.587 69.8345 115.584 69.7058C115.581 69.6693 115.581 69.6324 115.584 69.5959V69.3281C115.58 69.2893 115.58 69.2502 115.584 69.2114C115.59 69.056 115.613 68.9017 115.653 68.7513C115.692 68.5995 115.747 68.4522 115.818 68.3119C115.884 68.1782 115.967 68.0536 116.065 67.9411C116.152 67.834 116.259 67.7453 116.381 67.6802ZM116.758 68.5522C116.76 68.4769 116.746 68.4022 116.717 68.3325C116.699 68.2879 116.668 68.2497 116.628 68.2226C116.59 68.209 116.549 68.209 116.511 68.2226C116.465 68.2337 116.421 68.2523 116.381 68.2775C116.333 68.3034 116.289 68.3357 116.25 68.3737C116.205 68.4183 116.165 68.4692 116.134 68.5247C116.092 68.5874 116.061 68.6572 116.044 68.7307C116.017 68.8222 116 68.9168 115.996 69.0123C115.993 69.0442 115.993 69.0764 115.996 69.1084V69.3556C115.992 69.3875 115.992 69.4198 115.996 69.4517C115.997 69.5275 116.013 69.6023 116.044 69.6715C116.058 69.7184 116.09 69.7579 116.134 69.7813C116.171 69.795 116.213 69.795 116.25 69.7813C116.296 69.7676 116.339 69.7491 116.381 69.7264L116.511 69.6303C116.555 69.5839 116.594 69.5333 116.628 69.4792C116.714 69.3311 116.759 69.1628 116.758 68.9917C116.763 68.9598 116.763 68.9274 116.758 68.8955V68.6483C116.761 68.6209 116.761 68.5933 116.758 68.5659V68.5522Z" fill="#FAFAFA"/>
<path d="M118.111 66.9726C118.155 66.8572 118.215 66.7486 118.29 66.6499C118.351 66.5668 118.428 66.4967 118.516 66.4439C118.563 66.4099 118.617 66.3856 118.674 66.3726C118.73 66.3596 118.789 66.3582 118.846 66.3684C118.89 66.3845 118.93 66.4091 118.964 66.441C118.999 66.4728 119.026 66.5112 119.045 66.5538C119.072 66.473 119.107 66.3949 119.148 66.3203C119.184 66.2484 119.225 66.1795 119.272 66.1143C119.316 66.0565 119.365 66.0014 119.416 65.9495C119.461 65.9086 119.509 65.8719 119.56 65.8397C119.645 65.7777 119.751 65.7506 119.855 65.7641C119.896 65.77 119.935 65.7847 119.969 65.8073C120.004 65.8298 120.033 65.8596 120.055 65.8946C120.109 65.9896 120.144 66.0947 120.158 66.2036C120.169 66.343 120.169 66.4831 120.158 66.6225V67.934C120.164 67.968 120.164 68.0029 120.158 68.037C120.144 68.0674 120.123 68.0935 120.096 68.1125L119.855 68.2498C119.847 68.2571 119.836 68.2611 119.825 68.2611C119.813 68.2611 119.802 68.2571 119.794 68.2498C119.785 68.2231 119.785 68.1942 119.794 68.1674V66.8834C119.811 66.7386 119.782 66.5918 119.711 66.4645C119.656 66.4096 119.581 66.4096 119.485 66.4645C119.388 66.5231 119.312 66.6092 119.265 66.7117C119.198 66.8702 119.165 67.041 119.169 67.213V68.5657C119.178 68.6017 119.178 68.6395 119.169 68.6756C119.158 68.7055 119.139 68.7317 119.114 68.7511L118.867 68.8884C118.863 68.8927 118.859 68.8961 118.855 68.8985C118.85 68.9009 118.844 68.9022 118.839 68.9022C118.834 68.9022 118.829 68.9009 118.824 68.8985C118.819 68.8961 118.815 68.8927 118.812 68.8884C118.806 68.8767 118.803 68.8638 118.803 68.8507C118.803 68.8375 118.806 68.8246 118.812 68.8129V67.522C118.828 67.3794 118.799 67.2353 118.729 67.11C118.674 67.0482 118.599 67.0551 118.496 67.11C118.399 67.1743 118.323 67.2648 118.276 67.3709C118.208 67.5337 118.178 67.7097 118.187 67.8859V69.1768C118.196 69.2105 118.196 69.2461 118.187 69.2798C118.176 69.3117 118.154 69.3386 118.125 69.3553L117.885 69.4927C117.876 69.4999 117.865 69.5039 117.854 69.5039C117.843 69.5039 117.832 69.4999 117.823 69.4927C117.815 69.4658 117.815 69.4372 117.823 69.4103V67.1374C117.817 67.1011 117.817 67.064 117.823 67.0276C117.838 67.0003 117.859 66.9768 117.885 66.9589L118.125 66.8147C118.134 66.8075 118.145 66.8035 118.156 66.8035C118.167 66.8035 118.178 66.8075 118.187 66.8147C118.193 66.8264 118.196 66.8394 118.196 66.8525C118.196 66.8656 118.193 66.8786 118.187 66.8903L118.111 66.9726Z" fill="#FAFAFA"/>
<path d="M140.695 52.8971C140.695 52.7873 140.592 52.8079 140.544 52.8971L140.297 53.4945C139.878 53.4465 139.37 53.8585 139.027 54.5794C138.587 55.5202 138.587 56.6394 139.027 57.0583C139.135 57.159 139.276 57.2188 139.423 57.2276C139.571 57.2364 139.717 57.1935 139.837 57.1063C140.193 56.8652 140.472 56.5267 140.641 56.1313C140.668 56.0833 140.683 56.0288 140.683 55.9734C140.683 55.9179 140.668 55.8634 140.641 55.8154C140.586 55.7605 140.489 55.8154 140.435 55.9322C140.105 56.6188 139.562 56.9484 139.233 56.6188C139.067 56.3392 138.98 56.0202 138.98 55.6953C138.98 55.3703 139.067 55.0513 139.233 54.7717C139.466 54.2705 139.81 53.9752 140.105 53.9615L139.92 54.4078C139.871 54.5314 139.92 54.6412 139.988 54.5863L140.723 54.1125C140.75 54.0874 140.772 54.0565 140.786 54.0221C140.8 53.9877 140.807 53.9506 140.805 53.9134L140.695 52.8971Z" fill="#FAFAFA"/>
<path d="M78.6836 232.121C78.5908 232.12 78.5019 232.083 78.4364 232.018L76.3764 229.999C76.3217 229.949 76.2847 229.882 76.2711 229.809C76.2575 229.736 76.2679 229.66 76.3009 229.594L78.3677 225.124C78.3869 225.082 78.4143 225.044 78.4482 225.012C78.4821 224.981 78.522 224.956 78.5654 224.94C78.6088 224.925 78.6549 224.917 78.7011 224.919C78.7474 224.921 78.7927 224.932 78.8346 224.952C78.9171 224.993 78.9804 225.065 79.0111 225.152C79.0418 225.239 79.0376 225.335 78.9994 225.419L77.0081 229.642L78.9307 231.482C78.9966 231.549 79.0335 231.639 79.0335 231.733C79.0335 231.826 78.9966 231.916 78.9307 231.983C78.8697 232.06 78.7809 232.109 78.6836 232.121Z" fill="#FAFAFA"/>
<path d="M90.1438 225.604C90.0917 225.603 90.0404 225.591 89.9928 225.57C89.9085 225.529 89.844 225.456 89.8132 225.367C89.7823 225.278 89.7876 225.181 89.828 225.096L91.8193 220.88L89.8966 219.033C89.8362 218.967 89.8033 218.881 89.8046 218.791C89.8059 218.702 89.8414 218.616 89.9037 218.552C89.9661 218.488 90.0505 218.45 90.1399 218.447C90.2292 218.443 90.3166 218.473 90.3842 218.532L92.4853 220.551C92.5401 220.601 92.577 220.668 92.5906 220.741C92.6043 220.814 92.5938 220.889 92.5609 220.956L90.4597 225.398C90.4329 225.46 90.3887 225.512 90.3326 225.549C90.2765 225.585 90.2108 225.605 90.1438 225.604Z" fill="#FAFAFA"/>
<path d="M108.182 215.333C108.064 215.335 107.947 215.304 107.846 215.243C107.726 215.165 107.63 215.056 107.566 214.928C107.502 214.801 107.473 214.658 107.482 214.515V210.814C107.482 210.528 107.55 210.246 107.682 209.991C107.813 209.737 108.004 209.518 108.237 209.352L108.842 209.002C108.906 208.966 108.982 208.957 109.053 208.977C109.124 208.996 109.185 209.043 109.222 209.107C109.259 209.171 109.269 209.247 109.251 209.318C109.232 209.39 109.186 209.451 109.123 209.489L108.519 209.839C108.372 209.956 108.253 210.104 108.171 210.273C108.089 210.442 108.046 210.627 108.045 210.814V214.515C108.045 214.66 108.086 214.735 108.127 214.756C108.169 214.776 108.251 214.756 108.375 214.708L111.581 212.854C111.758 212.737 111.905 212.58 112.011 212.397C112.117 212.213 112.179 212.008 112.192 211.796V208.095C112.199 208.046 112.195 207.996 112.181 207.949C112.166 207.902 112.142 207.858 112.11 207.821C112.081 207.816 112.052 207.817 112.023 207.824C111.995 207.831 111.968 207.844 111.945 207.862L111.259 208.246C111.193 208.282 111.117 208.291 111.046 208.272C110.974 208.253 110.913 208.207 110.874 208.143C110.837 208.079 110.827 208.002 110.846 207.93C110.865 207.858 110.912 207.796 110.977 207.759L111.664 207.374C111.771 207.305 111.894 207.264 112.022 207.257C112.15 207.25 112.277 207.276 112.392 207.333C112.514 207.417 112.613 207.531 112.677 207.665C112.741 207.799 112.768 207.947 112.755 208.095V211.796C112.741 212.106 112.652 212.409 112.497 212.677C112.342 212.946 112.124 213.174 111.863 213.341L108.663 215.195C108.516 215.28 108.351 215.327 108.182 215.333Z" fill="#FAFAFA"/>
<path d="M110.119 211.541C110.045 211.54 109.974 211.509 109.922 211.457C109.869 211.405 109.839 211.334 109.837 211.26V205.602C109.837 205.527 109.867 205.456 109.92 205.403C109.973 205.35 110.044 205.32 110.119 205.32C110.194 205.32 110.265 205.35 110.318 205.403C110.371 205.456 110.4 205.527 110.4 205.602V211.26C110.4 211.335 110.371 211.406 110.318 211.459C110.265 211.512 110.194 211.541 110.119 211.541Z" fill="#FAFAFA"/>
<path d="M108.718 208.396C108.67 208.395 108.623 208.383 108.58 208.362C108.516 208.324 108.468 208.263 108.448 208.192C108.428 208.12 108.436 208.043 108.471 207.977L109.899 205.457C109.938 205.394 109.999 205.348 110.07 205.327C110.107 205.317 110.146 205.315 110.184 205.321C110.222 205.327 110.258 205.34 110.29 205.361L111.718 206.226C111.781 206.266 111.825 206.328 111.842 206.4C111.858 206.472 111.846 206.548 111.808 206.611C111.789 206.643 111.765 206.671 111.735 206.693C111.706 206.716 111.672 206.732 111.636 206.741C111.6 206.75 111.563 206.751 111.526 206.746C111.49 206.74 111.454 206.727 111.423 206.707L110.242 206.02L108.958 208.279C108.931 208.318 108.895 208.348 108.853 208.369C108.811 208.389 108.764 208.399 108.718 208.396Z" fill="#FAFAFA"/>
<path d="M120.81 208.212H120.734C120.684 208.194 120.641 208.162 120.61 208.119C120.579 208.076 120.563 208.024 120.563 207.971V201.427C120.562 201.376 120.576 201.326 120.604 201.283C121.943 199.319 123.351 198.537 124.724 198.969C124.776 198.984 124.821 199.016 124.854 199.059C124.886 199.103 124.903 199.155 124.902 199.21V205.753C124.903 205.793 124.895 205.832 124.879 205.868C124.862 205.903 124.837 205.935 124.806 205.959C124.774 205.983 124.737 205.999 124.697 206.005C124.658 206.011 124.617 206.007 124.58 205.994C123.426 205.657 122.231 206.371 121.023 208.109C121 208.143 120.968 208.171 120.93 208.189C120.893 208.207 120.851 208.215 120.81 208.212ZM121.064 201.496V207.202C122.156 205.829 123.275 205.252 124.394 205.431V199.402C123.316 199.175 122.19 199.876 121.064 201.496Z" fill="#FAFAFA"/>
<path d="M124.648 206H124.573C124.522 205.983 124.478 205.951 124.446 205.908C124.414 205.865 124.396 205.813 124.394 205.759V199.215C124.394 199.165 124.411 199.117 124.442 199.078C125.781 197.114 127.189 196.332 128.562 196.764C128.615 196.778 128.661 196.809 128.694 196.853C128.726 196.897 128.743 196.95 128.741 197.004V203.548C128.741 203.587 128.732 203.626 128.714 203.661C128.696 203.695 128.67 203.725 128.638 203.747C128.607 203.771 128.571 203.786 128.533 203.793C128.495 203.801 128.456 203.799 128.418 203.789C127.265 203.445 126.063 204.159 124.861 205.903C124.836 205.935 124.804 205.961 124.767 205.977C124.73 205.994 124.689 206.002 124.648 206ZM124.903 199.284V204.99C125.994 203.617 127.107 203.033 128.233 203.219V197.183C127.143 196.959 126.033 197.659 124.903 199.284Z" fill="#FAFAFA"/>
<path d="M135.944 198.2C135.821 198.2 135.7 198.167 135.594 198.104C135.467 198.022 135.365 197.907 135.299 197.771C135.233 197.636 135.204 197.485 135.216 197.335V193.057C135.232 192.712 135.33 192.376 135.504 192.077C135.677 191.778 135.92 191.526 136.212 191.341L139.913 189.198C140.032 189.106 140.175 189.051 140.325 189.039C140.475 189.028 140.626 189.061 140.757 189.134C140.889 189.207 140.996 189.317 141.066 189.451C141.135 189.584 141.164 189.735 141.149 189.885V190.523C141.149 190.587 141.123 190.648 141.078 190.693C141.033 190.738 140.972 190.764 140.908 190.764C140.845 190.764 140.783 190.738 140.738 190.693C140.693 190.648 140.668 190.587 140.668 190.523V189.885C140.668 189.706 140.62 189.576 140.531 189.528C140.467 189.506 140.4 189.5 140.334 189.511C140.268 189.522 140.206 189.549 140.153 189.59L136.452 191.725C136.234 191.869 136.052 192.062 135.921 192.288C135.79 192.515 135.713 192.769 135.697 193.03V197.308C135.674 197.374 135.675 197.446 135.699 197.512C135.724 197.578 135.771 197.633 135.832 197.668C135.893 197.703 135.964 197.716 136.034 197.704C136.103 197.692 136.166 197.656 136.212 197.603L136.761 197.28C136.817 197.25 136.882 197.242 136.944 197.259C137.005 197.275 137.058 197.315 137.091 197.369C137.106 197.397 137.117 197.427 137.121 197.459C137.125 197.49 137.123 197.522 137.115 197.553C137.106 197.583 137.092 197.612 137.073 197.637C137.053 197.662 137.029 197.683 137.001 197.699L136.452 198.015C136.302 198.12 136.127 198.184 135.944 198.2Z" fill="#FAFAFA"/>
<path d="M137.365 199.031C137.243 199.033 137.122 199.002 137.015 198.941C136.889 198.859 136.789 198.744 136.723 198.608C136.658 198.473 136.631 198.322 136.644 198.172V193.881C136.658 193.537 136.754 193.201 136.925 192.902C137.096 192.604 137.337 192.35 137.626 192.164L141.334 190.022C141.457 189.936 141.602 189.885 141.751 189.874C141.901 189.863 142.051 189.893 142.186 189.96C142.314 190.042 142.416 190.158 142.483 190.295C142.55 190.432 142.577 190.584 142.563 190.736V195.014C142.547 195.358 142.449 195.693 142.277 195.992C142.105 196.291 141.864 196.544 141.574 196.73L137.867 198.866C137.717 198.965 137.544 199.022 137.365 199.031ZM141.849 190.365C141.753 190.369 141.661 190.4 141.581 190.454L137.873 192.59C137.656 192.735 137.476 192.928 137.346 193.154C137.216 193.381 137.14 193.634 137.125 193.894V198.172C137.116 198.237 137.124 198.303 137.147 198.364C137.169 198.425 137.207 198.479 137.255 198.523C137.318 198.544 137.385 198.55 137.451 198.541C137.516 198.531 137.579 198.506 137.633 198.468L141.341 196.325C141.557 196.181 141.737 195.989 141.867 195.764C141.997 195.539 142.073 195.287 142.089 195.027V190.75C142.089 190.571 142.041 190.441 141.952 190.393C141.924 190.367 141.887 190.353 141.849 190.351V190.365Z" fill="#FAFAFA"/>
<path d="M127.889 119.187C127.07 116.81 125.608 114.707 123.666 113.11C121.883 111.706 119.673 110.955 117.404 110.981C114.686 111.072 112.039 111.875 109.727 113.309C106.826 115.048 104.234 117.257 102.057 119.846C99.6041 122.706 97.4996 125.848 95.7881 129.205C93.9881 132.692 92.5721 136.364 91.5651 140.157C90.569 143.85 90.0498 147.655 90.0202 151.48C89.9591 154.726 90.4825 157.957 91.5651 161.018C92.3902 163.392 93.8509 165.494 95.7881 167.095C97.5703 168.505 99.7847 169.257 102.057 169.223C104.774 169.133 107.419 168.33 109.727 166.895C112.632 165.161 115.226 162.954 117.404 160.365C119.851 157.502 121.953 154.361 123.666 151.006C125.473 147.51 126.889 143.826 127.889 140.02C128.891 136.328 129.413 132.522 129.441 128.697C129.5 125.459 128.974 122.238 127.889 119.187ZM127.457 129.871C127.451 131.905 127.281 133.935 126.949 135.941L121.023 139.374C121.371 137.074 121.55 134.752 121.558 132.425C121.565 130.459 121.407 128.495 121.084 126.554L126.708 123.313C127.229 125.46 127.48 127.663 127.457 129.871ZM122.266 115.822C123.946 117.205 125.229 119.011 125.98 121.054L120.556 124.186C120.357 123.451 120.13 122.75 119.869 122.071C119.062 119.872 117.806 117.866 116.182 116.179C115.473 115.461 114.688 114.823 113.84 114.277C115.266 113.848 116.774 113.764 118.239 114.032C119.704 114.301 121.084 114.915 122.266 115.822ZM110.723 116.117C112.21 116.734 113.556 117.648 114.678 118.802C116.163 120.343 117.311 122.177 118.049 124.186C118.194 124.577 118.338 124.982 118.461 125.394L110.723 129.864V116.117ZM119.045 127.749C119.408 129.676 119.585 131.632 119.574 133.593C119.564 135.919 119.367 138.24 118.983 140.535L110.743 145.307V132.563L119.045 127.749ZM100.148 144.785C100.155 142.628 100.33 140.475 100.67 138.344L108.738 133.682V146.433L100.732 151.047C100.334 148.984 100.139 146.887 100.148 144.785ZM108.738 117.504V130.99L101.233 135.33C101.357 134.787 101.494 134.245 101.632 133.703C102.48 130.534 103.599 127.444 104.976 124.467C106.076 122.073 107.333 119.754 108.738 117.525V117.504ZM97.1957 130.276C99.37 125.901 102.344 121.972 105.964 118.692C105.209 120.066 104.371 121.638 103.534 123.458C102.017 126.737 100.788 130.142 99.8599 133.634C99.6082 134.609 99.3793 135.577 99.1733 136.538L93.4878 139.821C94.383 136.524 95.626 133.331 97.1957 130.297V130.276ZM92.7531 142.917L98.6377 139.519C98.3261 141.642 98.1678 143.785 98.1639 145.932C98.154 148.043 98.3332 150.15 98.6995 152.229L92.5196 155.799C92.1691 153.989 91.9989 152.149 92.0115 150.306C92.0214 147.832 92.2697 145.364 92.7531 142.938V142.917ZM97.1957 164.362C95.2496 162.739 93.8318 160.573 93.1239 158.141L99.2351 154.611C99.4136 155.298 99.6127 155.923 99.8393 156.548C100.662 158.901 101.904 161.085 103.506 162.995C104.356 164.003 105.321 164.906 106.383 165.687C102.922 166.813 99.7363 166.374 97.1957 164.382V164.362ZM105.072 160.441C103.588 158.674 102.439 156.652 101.68 154.474C101.556 154.124 101.432 153.787 101.323 153.41L108.738 149.125V163.6C107.357 162.756 106.119 161.696 105.072 160.462V160.441ZM110.723 162.755V148.006L118.4 143.57C118.297 144.044 118.18 144.517 118.063 144.991C117.198 148.356 116.073 151.648 114.699 154.838C113.528 157.558 112.201 160.209 110.723 162.776V162.755ZM122.266 149.887C120.073 154.302 117.065 158.263 113.401 161.56C114.252 159.953 115.234 157.962 116.216 155.676C117.715 152.216 118.939 148.643 119.876 144.991C120.103 144.105 120.309 143.226 120.487 142.361L126.337 138.983C125.426 142.775 124.058 146.444 122.266 149.908V149.887Z" fill="#506DE4"/>
<path d="M192.991 4.99537C192.951 4.28527 192.743 3.59477 192.385 2.9802C192.027 2.36563 191.529 1.84442 190.931 1.45909L189.263 0.497772C188.625 0.17063 187.919 0 187.203 0C186.486 0 185.78 0.17063 185.143 0.497772L160.746 14.6566C160.149 15.0432 159.652 15.5647 159.294 16.179C158.936 16.7933 158.728 17.4832 158.686 18.1929V46.4762C158.726 47.1863 158.934 47.8768 159.292 48.4914C159.65 49.106 160.148 49.6272 160.746 50.0125L162.408 50.9738C163.041 51.2953 163.74 51.4628 164.45 51.4628C165.16 51.4628 165.86 51.2953 166.493 50.9738L190.952 36.815C191.55 36.4301 192.049 35.909 192.407 35.2943C192.765 34.6796 192.972 33.9889 193.012 33.2787L192.991 4.99537Z" fill="#506DE4"/>
<path opacity="0.2" d="M158.7 46.4759C158.74 47.1868 158.948 47.8781 159.306 48.4936C159.664 49.1092 160.162 49.6318 160.76 50.019L162.421 50.9735C162.996 51.2647 163.627 51.43 164.271 51.4584C164.915 51.4868 165.558 51.3777 166.157 51.1383C165.195 51.5022 164.467 50.9598 164.467 49.765V21.516C164.492 20.8032 164.697 20.1084 165.065 19.4972L159.318 16.1807C158.947 16.7886 158.739 17.4813 158.713 18.1926L158.7 46.4759Z" fill="black"/>
<path opacity="0.5" d="M192.922 4.41841C192.689 3.54635 191.899 3.27169 190.952 3.81415L166.466 17.9799C165.858 18.3512 165.361 18.8773 165.024 19.5042L159.276 16.1877C159.617 15.5636 160.114 15.0385 160.718 14.6633L185.17 0.497602C185.809 0.173691 186.514 0.00488281 187.23 0.00488281C187.946 0.00488281 188.652 0.173691 189.29 0.497602L190.959 1.45892C191.469 1.79367 191.907 2.22856 192.244 2.73727C192.582 3.24597 192.812 3.81789 192.922 4.41841Z" fill="white"/>
<path d="M175.262 41.436C171.272 41.436 168.594 37.8036 168.594 32.3996C168.594 25.4438 172.714 17.6159 177.988 14.5465C179.243 13.7725 180.681 13.346 182.156 13.3105C186.138 13.3105 188.823 16.943 188.823 22.3469C188.823 29.3028 184.703 37.1306 179.423 40.2C178.169 40.9719 176.733 41.3983 175.262 41.436Z" fill="#FAFAFA"/>
<path d="M182.156 14.3203C180.851 14.3575 179.579 14.7389 178.468 15.4258C173.552 18.2686 169.542 25.8905 169.542 32.4206C169.542 37.3301 171.78 40.5025 175.255 40.5025C176.557 40.4646 177.826 40.0857 178.935 39.4038C183.859 36.5611 187.862 28.9392 187.862 22.4022C187.869 17.4652 185.623 14.3203 182.156 14.3203Z" fill="#506DE4"/>
<path d="M175.392 39.4236C172.46 39.4236 170.4 36.677 170.4 32.1657C170.4 26.0682 174.115 18.9819 178.688 16.3726C179.678 15.7584 180.812 15.4151 181.977 15.377C184.916 15.377 186.969 18.0892 186.969 22.6349C186.969 28.7324 183.261 35.8256 178.688 38.428C177.696 39.0445 176.559 39.388 175.392 39.4236Z" fill="#FAFAFA"/>
<path d="M177.788 26.7003L178.709 27.3869L179.629 28.0736L184.085 17.0459L177.788 26.7003Z" fill="#506DE4"/>
<path d="M173.332 37.7289L179.629 28.0745L178.709 27.3878L177.789 26.7012L173.332 37.7289Z" fill="#E0E0E0"/>
<path d="M192.991 56.1438C192.95 55.434 192.742 54.7439 192.384 54.1295C192.026 53.5151 191.528 52.9937 190.931 52.6075L189.263 51.6462C188.625 51.3191 187.919 51.1484 187.203 51.1484C186.486 51.1484 185.78 51.3191 185.143 51.6462L160.746 65.8188C160.149 66.2053 159.652 66.7268 159.294 67.3411C158.936 67.9555 158.728 68.6453 158.686 69.3551V97.6384C158.727 98.3493 158.935 99.0406 159.293 99.6561C159.651 100.272 160.148 100.794 160.746 101.182L162.408 102.136C163.041 102.457 163.741 102.625 164.451 102.625C165.16 102.625 165.86 102.457 166.493 102.136L190.952 87.9772C191.55 87.5922 192.049 87.0711 192.407 86.4565C192.765 85.8418 192.972 85.1511 193.012 84.4409L192.991 56.1438Z" fill="#506DE4"/>
<path opacity="0.2" d="M158.7 97.6252C158.741 98.3361 158.948 99.0274 159.306 99.643C159.664 100.259 160.162 100.781 160.76 101.168L162.421 102.123C162.997 102.414 163.627 102.579 164.271 102.608C164.915 102.636 165.558 102.527 166.157 102.288C165.195 102.652 164.468 102.109 164.468 100.914V72.6859C164.492 71.9731 164.698 71.2783 165.065 70.6671L159.318 67.3506C158.948 67.9585 158.739 68.6512 158.713 69.3625L158.7 97.6252Z" fill="black"/>
<path opacity="0.5" d="M192.923 55.5668C192.689 54.6948 191.9 54.4201 190.952 54.9626L166.466 69.1283C165.859 69.4997 165.361 70.0258 165.024 70.6527L159.276 67.3361C159.618 66.7121 160.114 66.1869 160.718 65.8117L185.17 51.646C185.809 51.3221 186.514 51.1533 187.23 51.1533C187.946 51.1533 188.652 51.3221 189.29 51.646L190.959 52.6074C191.469 52.9421 191.907 53.377 192.244 53.8857C192.582 54.3944 192.813 54.9663 192.923 55.5668Z" fill="white"/>
<path d="M178.743 89.914C179.258 88.3278 181.112 82.5874 181.956 80.5274C182.6 79.1461 182.973 77.6544 183.055 76.1329C183.055 74.4986 182.526 73.2626 181.593 72.6996L186.66 69.7744C187.061 70.9875 187.254 72.2598 187.23 73.5373C187.23 79.8065 183.433 87.1056 178.743 89.914Z" fill="white"/>
<path d="M178.743 89.914C179.258 88.3278 181.112 82.5874 181.956 80.5274C182.6 79.1461 182.973 77.6544 183.055 76.1329C183.055 74.4986 182.526 73.2626 181.593 72.6996L186.66 69.7744C187.061 70.9875 187.254 72.2598 187.23 73.5373C187.23 79.8065 183.433 87.1056 178.743 89.914Z" fill="#506DE4"/>
<path d="M187.23 73.5167C187.23 79.8065 183.433 87.1262 178.743 89.914C179.258 88.3278 181.112 82.5874 181.956 80.5274C182.6 79.1461 182.973 77.6544 183.055 76.1329C183.055 74.4986 182.526 73.2626 181.593 72.6996L186.66 69.7744C187.059 70.981 187.251 72.2461 187.23 73.5167Z" fill="white"/>
<path d="M178.599 72.85C176.683 73.9761 175.021 76.654 174.52 79.3457L172.158 75.1159C172.929 73.3891 173.926 71.7727 175.124 70.3093C176.15 69.0283 177.394 67.9381 178.798 67.0889C179.461 66.6512 180.204 66.3498 180.984 66.2025C181.765 66.0551 182.567 66.0647 183.344 66.2306C184.516 66.5743 185.504 67.3696 186.09 68.4416L178.599 72.85Z" fill="white"/>
<path d="M172.158 75.1159C172.929 73.3891 173.926 71.7727 175.124 70.3093C176.15 69.0283 177.394 67.9381 178.798 67.0889C179.461 66.6512 180.204 66.3498 180.984 66.2025C181.765 66.0551 182.567 66.0647 183.344 66.2306C184.516 66.5743 185.504 67.3696 186.09 68.4416L178.626 72.85C176.71 73.9761 175.049 76.654 174.548 79.3457L172.158 75.1159Z" fill="#506DE4"/>
<path d="M186.063 68.4416L178.599 72.85C176.683 73.9761 175.021 76.654 174.52 79.3457L172.158 75.1159C172.929 73.3891 173.926 71.7727 175.124 70.3093C176.15 69.0283 177.394 67.9381 178.798 67.0889C179.461 66.6512 180.204 66.3498 180.984 66.2025C181.765 66.0551 182.567 66.0647 183.344 66.2306C184.506 66.5807 185.483 67.3752 186.063 68.4416Z" fill="white"/>
<path d="M177.28 90.6145C176.562 90.9285 175.777 91.0591 174.995 90.9943C174.214 90.9296 173.461 90.6717 172.803 90.2437C171.114 89.0764 170.18 86.7074 170.18 83.5625C170.213 81.3187 170.627 79.0968 171.403 76.9912C172.028 78.0212 174.033 81.3103 174.623 82.7042C174.773 83.1355 175.013 83.5298 175.328 83.8603C175.644 84.1907 176.026 84.4498 176.45 84.62C176.844 84.7351 177.259 84.7615 177.665 84.6974C178.071 84.6333 178.458 84.4803 178.798 84.2492C179.124 84.0509 179.43 83.8209 179.711 83.5625L177.28 90.6145Z" fill="white"/>
<path d="M172.803 90.2437C171.114 89.0764 170.18 86.7074 170.18 83.5625C170.213 81.3187 170.627 79.0968 171.403 76.9912C172.028 78.0212 174.033 81.3103 174.623 82.7042C174.773 83.1355 175.013 83.5298 175.328 83.8602C175.644 84.1907 176.026 84.4498 176.45 84.62C176.844 84.7351 177.259 84.7615 177.665 84.6974C178.071 84.6333 178.458 84.4803 178.798 84.2492C179.124 84.0509 179.43 83.8209 179.711 83.5625L177.28 90.5939C176.564 90.9109 175.779 91.0449 174.998 90.9838C174.216 90.9227 173.462 90.6683 172.803 90.2437Z" fill="#506DE4"/>
<path d="M179.711 83.5831L177.28 90.6145C176.562 90.9285 175.777 91.0591 174.995 90.9943C174.214 90.9296 173.461 90.6717 172.803 90.2437C171.114 89.0764 170.18 86.7074 170.18 83.5625C170.213 81.3187 170.627 79.0968 171.403 76.9912C172.028 78.0212 174.033 81.3103 174.623 82.7042C174.773 83.1355 175.013 83.5298 175.328 83.8603C175.644 84.1907 176.026 84.4498 176.45 84.62C176.844 84.7351 177.259 84.7615 177.665 84.6974C178.071 84.6333 178.458 84.4803 178.798 84.2492C179.123 84.0575 179.429 83.8344 179.711 83.5831Z" fill="white"/>
<path d="M181.531 76.9154C181.531 78.9753 180.267 81.4129 178.709 82.3125C177.15 83.212 175.88 82.2575 175.88 80.177C175.88 78.0964 177.143 75.6794 178.709 74.773C180.274 73.8666 181.531 74.8279 181.531 76.9154Z" fill="white"/>
<path d="M192.991 107.293C192.95 106.583 192.742 105.893 192.384 105.279C192.026 104.665 191.528 104.143 190.931 103.757L189.263 102.796C188.625 102.468 187.919 102.298 187.203 102.298C186.486 102.298 185.78 102.468 185.143 102.796L160.691 116.954C160.094 117.341 159.597 117.863 159.239 118.477C158.881 119.091 158.673 119.781 158.631 120.491V148.774C158.672 149.485 158.88 150.176 159.238 150.792C159.596 151.407 160.093 151.93 160.691 152.317L162.353 153.272C162.986 153.593 163.686 153.761 164.396 153.761C165.106 153.761 165.805 153.593 166.438 153.272L190.897 139.113C191.495 138.728 191.994 138.207 192.352 137.592C192.71 136.978 192.917 136.287 192.957 135.577L192.991 107.293Z" fill="#506DE4"/>
<path opacity="0.2" d="M158.7 148.774C158.741 149.485 158.948 150.176 159.306 150.792C159.664 151.407 160.162 151.93 160.76 152.317L162.421 153.271C162.997 153.563 163.627 153.728 164.271 153.756C164.915 153.785 165.558 153.676 166.157 153.436C165.195 153.8 164.468 153.258 164.468 152.063V123.814C164.492 123.101 164.698 122.406 165.065 121.795L159.318 118.479C158.948 119.086 158.739 119.779 158.713 120.49L158.7 148.774Z" fill="black"/>
<path opacity="0.5" d="M192.923 106.717C192.689 105.845 191.9 105.571 190.952 106.113L166.466 120.279C165.859 120.65 165.361 121.176 165.024 121.803L159.276 118.487C159.618 117.862 160.114 117.337 160.718 116.962L185.17 102.796C185.809 102.473 186.514 102.304 187.23 102.304C187.946 102.304 188.652 102.473 189.29 102.796L190.959 103.758C191.469 104.092 191.907 104.527 192.244 105.036C192.582 105.545 192.813 106.117 192.923 106.717Z" fill="white"/>
<path d="M170.187 133.675C170.489 127.385 174.081 120.491 178.647 117.882C183.9 114.854 187.23 117.882 187.23 124.7V127.564L175.433 134.375C175.433 136.154 176.395 137.918 179.093 137.087C181.792 136.257 184.538 132.707 185.465 131.519V136.717C183.902 138.742 181.971 140.455 179.773 141.764C176.257 143.824 172.165 142.794 172.165 136.73C172.189 132.508 173.768 128.443 176.601 125.311C175.864 126.686 175.464 128.215 175.433 129.775L181.963 126.005C181.963 123.519 181.565 122.839 181.05 122.448C180.535 122.057 178.812 121.48 175.275 125.325C171.739 129.17 170.675 132.123 170.187 133.675Z" fill="white"/>
<path d="M237.411 236.199C237.37 237.73 235.934 241.576 235.934 241.576C235.934 241.576 234.946 242.771 232.501 243.073L232.989 237.318L237.411 236.199Z" fill="#263238"/>
<path d="M232.481 243.073L228.017 240.141V235.479L232.762 239.75L232.481 243.073Z" fill="black"/>
<path d="M230.469 228.728L230.688 227.773C229.933 227.918 227.413 233.088 224.44 236.219C221.693 239.083 217.635 239.982 216.076 241.122C214.016 242.653 216.33 245.99 221.467 246.272C224.014 246.409 228.072 245.853 229.5 244.5C230.929 243.148 232.075 240.25 233.208 239.275C234.341 238.3 236.642 237.448 237.411 236.199C237.836 235.512 237.905 233.809 237.857 232.353C237.809 230.98 237.768 229.538 237.308 229.559C237.273 229.71 237.102 230.355 237.102 230.355C236.875 230.987 235.955 231.55 233.339 230.966C232.158 230.699 230.112 230.012 230.469 228.728Z" fill="#455A64"/>
<path d="M285.291 211.892C285.978 213.1 286.513 221.052 286.513 221.052C286.513 221.052 284.33 223.565 283.162 224.272L280.539 216.527L285.291 211.892Z" fill="#263238"/>
<path d="M283.162 224.271L276.969 222.087L275.17 216.924L281.576 219.519L283.162 224.271Z" fill="black"/>
<path d="M280.787 207.044C281.233 206.638 281.803 207.497 282.943 208.774C283.824 209.669 284.601 210.662 285.257 211.733C285.902 213.045 283.993 215.936 282.757 217.515C281.521 219.094 281.192 220.605 280.924 223.008C280.601 225.927 280.924 227.767 277.038 229.957C273.934 231.708 268.056 231.42 266.909 230.074C264.952 227.767 270.398 225.528 271.716 221.422C273.529 215.75 273.776 214.796 274.064 210.724L280.787 207.044Z" fill="#455A64"/>
<path d="M233.133 128.703C235.756 130.53 237.253 132.823 249.475 131.628L250.924 166.792C250.924 166.792 260.661 173.576 263.408 177.998C266.154 182.42 279.022 204.441 279.022 204.441L280.869 207.147C282.016 208.829 281.432 210.175 279.75 211.315C278.068 212.455 276.125 212.997 274.827 211.582L273.241 209.852C273.241 209.852 241.778 179.33 240.7 177.49C239.622 175.65 237.267 171.104 235.117 161.862C232.385 150.003 232.652 141.667 233.133 128.703Z" fill="#FFA8A7"/>
<path d="M233.167 149.667C233.529 153.774 234.185 157.85 235.131 161.862C237.246 171.105 239.642 175.65 240.714 177.491C241.52 178.479 242.382 179.422 243.295 180.313C245.527 182.613 248.96 186.046 252.73 189.768C252.545 185.051 251.796 179.743 251.796 179.743C253.561 177.436 255.964 173.563 257.166 171.578L256.623 171.125L256.5 171.022L256.06 170.672L255.902 170.542L255.497 170.219L255.346 170.095L254.962 169.793L254.804 169.676L254.419 169.374L254.289 169.271L253.877 168.955L253.801 168.9L253.348 168.557C253.039 168.317 252.751 168.104 252.49 167.912H252.455L252.126 167.671L252.05 167.623L251.81 167.445L251.721 167.383L251.528 167.239L251.467 167.198L251.302 167.081L251.254 167.047L251.123 166.957L251.034 166.895L250.038 142.595L233.167 149.667Z" fill="#F28F8F"/>
<path d="M233.133 128.703C232.321 134.271 231.933 139.893 231.972 145.519C231.972 149.028 232.323 155.661 232.323 155.661C237.493 158.224 243.454 158.691 248.96 156.966L248.644 134.485C248.644 134.485 240.281 133.022 233.133 128.703Z" fill="#37474F"/>
<path d="M230.146 229.457L230.249 228.77C231.533 222.398 234.678 186.884 235.804 177.346C237.026 167.012 241.778 142.162 241.778 142.162C241.778 142.162 236.58 133.483 233.133 128.731C236.367 133.407 255.373 133.394 257.454 125.298C258.621 128.731 263.696 132.652 262.947 143.316C262.02 156.911 249.729 179.708 249.729 179.708C249.887 181.556 250.67 189.322 248.905 196.188C246.159 207.037 238.461 225.913 237.575 228.537L236.971 230.761C235.577 232.1 230.798 231.304 230.146 229.457Z" fill="#FFA8A7"/>
<path d="M233.133 128.704C233.133 128.704 237.837 131.574 245.026 130.667C249.565 129.993 253.849 128.144 257.454 125.305C258.774 127.165 259.934 129.133 260.922 131.189C262.014 133.304 263.669 138.64 263.401 142.588C262.817 151.652 258.841 160.949 258.841 160.949C257.885 160.441 257.042 159.742 256.367 158.895C255.691 158.048 255.197 157.071 254.914 156.026C254.914 156.026 250.753 159.734 245.355 159.905C239.958 160.077 237.802 158.381 237.802 158.381L239.986 143.323C236.531 139.089 234.177 134.067 233.133 128.704Z" fill="#455A64"/>
<path d="M243.762 61.6993C241.394 61.6993 239.148 61.8984 237.088 62.997C235.028 62.2417 231.327 62.0975 228.505 66.0664C226.39 69.0465 226.939 74.3818 229.192 77.1765C229.073 77.6238 228.9 78.055 228.677 78.4605C228.133 79.4091 227.358 80.2051 226.424 80.7746C224.783 81.7633 222.689 82.0243 221.343 83.3976C220.65 84.1493 220.252 85.1259 220.222 86.1478C220.192 87.1696 220.531 88.168 221.178 88.9595C220.352 89.1123 219.599 89.5301 219.031 90.1496C218.464 90.7691 218.113 91.5565 218.034 92.3928C217.917 94.0682 219.304 95.984 220.657 96.238C218.548 98.298 219.07 102.342 221.027 104.691C222.984 107.039 225.738 107.609 228.828 106.627C229.075 107.616 228.299 105.748 229.199 106.201C230.123 106.621 231.122 106.855 232.137 106.888C237.131 107.229 242.06 105.602 245.871 102.356C247.615 100.866 249.578 99.6576 251.22 98.0165C252.89 96.3399 254.302 94.4237 255.408 92.331C257.182 89.0322 258.125 85.3507 258.155 81.6054V76.0435C258.153 74.1562 257.779 72.2879 257.055 70.5452C256.33 68.8026 255.269 67.2199 253.932 65.8876C252.596 64.5553 251.009 63.4997 249.264 62.781C247.519 62.0623 245.65 61.6947 243.762 61.6993Z" fill="#506DE4"/>
<path opacity="0.5" d="M243.762 61.6993C241.394 61.6993 239.148 61.8984 237.088 62.997C235.028 62.2417 231.327 62.0975 228.505 66.0664C226.39 69.0465 226.939 74.3818 229.192 77.1765C229.073 77.6238 228.9 78.055 228.677 78.4605C228.133 79.4091 227.358 80.2051 226.424 80.7746C224.783 81.7633 222.689 82.0243 221.343 83.3976C220.65 84.1493 220.252 85.1259 220.222 86.1478C220.192 87.1696 220.531 88.168 221.178 88.9595C220.352 89.1123 219.599 89.5301 219.031 90.1496C218.464 90.7691 218.113 91.5565 218.034 92.3928C217.917 94.0682 219.304 95.984 220.657 96.238C218.548 98.298 219.07 102.342 221.027 104.691C222.984 107.039 225.738 107.609 228.828 106.627C229.075 107.616 228.299 105.748 229.199 106.201C230.123 106.621 231.122 106.855 232.137 106.888C237.131 107.229 242.06 105.602 245.871 102.356C247.615 100.866 249.578 99.6576 251.22 98.0165C252.89 96.3399 254.302 94.4237 255.408 92.331C257.182 89.0322 258.125 85.3507 258.155 81.6054V76.0435C258.153 74.1562 257.779 72.2879 257.055 70.5452C256.33 68.8026 255.269 67.2199 253.932 65.8876C252.596 64.5553 251.009 63.4997 249.264 62.781C247.519 62.0623 245.65 61.6947 243.762 61.6993Z" fill="black"/>
<path d="M230.036 100.475C228.148 105.014 225.504 112.491 223.925 117.051L216.317 108.124H209.924C209.924 108.124 217.587 124.528 222.201 128.305C225.278 130.825 227.2 128.992 227.962 127.405C227.962 127.357 229.267 125.105 230.949 121.706C233.133 117.298 235.468 112.464 235.468 112.464L240.487 93.6082C236.504 93.2855 232.446 94.7137 230.036 100.475Z" fill="#FFA8A7"/>
<path d="M223.925 117.051C224.78 118.058 225.563 119.125 226.266 120.244C226.266 120.244 225.353 117.188 224.206 116.124L223.925 117.051Z" fill="#F28F8F"/>
<path d="M250.32 93.6014L255.525 93.7867C256.285 93.9702 257.028 94.2136 257.75 94.5146C260.071 95.7162 260.338 97.9891 260.455 100.694C260.579 103.661 260.318 106.188 257.592 110.898L255.085 116.735C255.085 116.735 255.14 118.63 255.223 120.003C255.223 120.292 257.434 125.078 257.454 125.297C257.777 129.713 241.057 136.284 232.824 129.534C232.824 129.362 233.174 122.853 233.167 122.667C233.003 119.104 232.838 115.732 232.838 115.732C228.361 111.338 229.295 106.607 230.867 103.462C234.012 97.1582 238.001 93.464 240.776 93.6014H250.32Z" fill="#506DE4"/>
<path opacity="0.1" d="M252.545 119.729C252.826 122.578 254.859 126.705 252.359 130.186C255.47 128.758 257.571 126.89 257.454 125.304C257.454 125.084 255.237 120.298 255.223 120.01C255.14 118.637 255.086 116.742 255.086 116.742L257.592 110.905C260.263 106.284 260.565 103.778 260.462 100.894L256.418 105.302C253.465 111.084 252.14 115.526 252.545 119.729Z" fill="black"/>
<path d="M273.213 119.599C266.751 103.057 264.121 96.2043 259.411 94.2542C257.598 93.5058 254.536 93.753 254.536 93.753C253.382 95.8747 252.29 102.934 257.138 107.651C257.138 107.651 263.428 117.099 265.467 121.81C264.959 126.362 264.554 132.46 263.091 135.618C262.94 135.936 262.728 136.222 262.466 136.457C262.205 136.693 261.899 136.875 261.567 136.992C259.747 137.678 259.301 138.64 257.873 139.635C256.761 140.411 255.882 140.487 255.971 140.816C256.132 141.203 256.421 141.523 256.79 141.721C257.159 141.92 257.585 141.986 257.996 141.908C258.749 141.799 259.481 141.584 260.173 141.27C259.371 142.486 258.384 143.57 257.248 144.483C254.549 146.722 254.24 148.356 259.026 149.29C262.027 149.887 264.636 148.603 267.637 142.945C268.783 140.867 269.768 138.705 270.583 136.477C271.994 132.266 272.945 127.914 273.419 123.499C273.584 121.576 273.632 120.663 273.213 119.599Z" fill="#FFA8A7"/>
<path d="M255.429 76.8397C253.973 75.4046 251.638 75.8303 250.622 77.8696C250.622 77.8696 248.617 77.801 243.831 76.1461C239.903 74.7728 235.358 71.7653 234.609 68.1191C233.16 70.3851 232.213 75.5213 232.611 81.4471C233.106 88.7806 235.66 89.9479 236.889 90.3736C238.118 90.7994 240.439 90.8612 242.657 90.3736L242.938 94.0541C242.938 94.0541 230.702 103.928 240.624 103.708C248.603 103.523 252.03 93.9168 252.03 93.9168V83.9191C252.642 84.1584 253.314 84.2045 253.953 84.0511C254.593 83.8976 255.17 83.552 255.607 83.0608C256.302 82.1634 256.664 81.0528 256.632 79.9182C256.599 78.7837 256.174 77.6957 255.429 76.8397Z" fill="#FFA8A7"/>
<path d="M235.749 74.698L233.401 75.8241C233.319 75.6746 233.268 75.5099 233.253 75.3402C233.237 75.1705 233.256 74.9994 233.309 74.8373C233.361 74.6752 233.447 74.5257 233.559 74.3978C233.672 74.2699 233.81 74.1664 233.964 74.0937C234.282 73.9477 234.645 73.9289 234.976 74.0412C235.308 74.1536 235.585 74.3885 235.749 74.698Z" fill="#263238"/>
<path d="M241.551 78.6055C241.544 78.8153 241.598 79.0227 241.708 79.2018C241.817 79.381 241.977 79.524 242.167 79.6132C242.357 79.7024 242.569 79.7337 242.777 79.7034C242.984 79.673 243.179 79.5823 243.335 79.4425C243.492 79.3027 243.604 79.1199 243.657 78.9169C243.711 78.714 243.704 78.4997 243.637 78.3008C243.569 78.1019 243.445 77.9271 243.28 77.7982C243.114 77.6692 242.914 77.5918 242.705 77.5755C242.561 77.5662 242.417 77.5856 242.281 77.6325C242.145 77.6795 242.02 77.753 241.912 77.8489C241.805 77.9447 241.718 78.061 241.656 78.1909C241.594 78.3208 241.558 78.4617 241.551 78.6055Z" fill="#263238"/>
<path d="M233.847 78.3438C233.84 78.5403 233.89 78.7347 233.992 78.9027C234.094 79.0708 234.244 79.2051 234.421 79.2889C234.599 79.3727 234.798 79.4024 234.993 79.3742C235.187 79.346 235.369 79.2612 235.516 79.1303C235.663 78.9994 235.768 78.8282 235.818 78.6381C235.868 78.448 235.862 78.2472 235.799 78.0609C235.736 77.8746 235.619 77.711 235.464 77.5903C235.309 77.4697 235.121 77.3974 234.925 77.3824C234.655 77.3674 234.39 77.4602 234.187 77.6404C233.985 77.8206 233.863 78.0735 233.847 78.3438Z" fill="#263238"/>
<path d="M238.811 77.376L238.901 83.4597L235.282 82.7868L238.811 77.376Z" fill="#F28F8F"/>
<path d="M242.087 84.8809L239.478 85.643C239.519 85.8183 239.596 85.9834 239.702 86.1283C239.809 86.2731 239.945 86.3948 240.1 86.486C240.255 86.5771 240.428 86.6358 240.606 86.6585C240.785 86.6812 240.966 86.6675 241.139 86.6181C241.491 86.5069 241.786 86.264 241.963 85.9402C242.139 85.6164 242.184 85.2368 242.087 84.8809Z" fill="#F28F8F"/>
<path d="M242.684 90.3672C244.813 89.9621 249.153 88.4171 249.736 86.6318C249.517 87.5335 249.023 88.3447 248.322 88.9527C247.072 90.1681 242.787 91.6994 242.787 91.6994L242.684 90.3672Z" fill="#F28F8F"/>
<path d="M208.001 96.1903L208.612 95.5585C208.707 95.4807 208.818 95.427 208.938 95.4019C209.057 95.3767 209.181 95.381 209.299 95.4143L216.667 96.664C217.042 96.7519 217.393 96.9202 217.697 97.1573C218 97.3945 218.249 97.6947 218.425 98.0374L225.044 112.457C225.122 112.571 225.164 112.707 225.164 112.845C225.164 112.984 225.122 113.119 225.044 113.233L224.419 113.885C224.325 113.963 224.213 114.018 224.094 114.044C223.975 114.07 223.851 114.068 223.732 114.036L216.365 112.78C215.988 112.695 215.635 112.528 215.332 112.291C215.028 112.053 214.78 111.751 214.607 111.407L207.981 96.9868C207.901 96.8684 207.86 96.728 207.864 96.5852C207.867 96.4425 207.915 96.3044 208.001 96.1903Z" fill="#455A64"/>
<path d="M224.412 113.054L217.786 98.6346C217.611 98.2915 217.363 97.9907 217.059 97.7535C216.756 97.5163 216.404 97.3483 216.028 97.2613L208.661 96.0322C207.974 95.9155 207.658 96.3344 207.974 96.9592L214.6 111.379C214.773 111.724 215.021 112.025 215.325 112.263C215.629 112.5 215.982 112.668 216.358 112.752L223.726 114.009C224.378 114.098 224.701 113.686 224.412 113.054Z" fill="#263238"/>
<path d="M216.852 97.6461C217.249 97.8973 217.573 98.2476 217.793 98.6624L224.412 113.082C224.486 113.194 224.525 113.326 224.525 113.46C224.525 113.594 224.486 113.725 224.412 113.837L225.003 113.219C225.08 113.106 225.121 112.972 225.121 112.835C225.121 112.698 225.08 112.564 225.003 112.45L218.383 98.0307C218.182 97.6392 217.881 97.3076 217.511 97.0693L216.852 97.6461Z" fill="#37474F"/>
<path d="M211.49 110.452C208.441 106.95 208.523 102.569 209.924 101.306L210.858 103.331C210.858 103.331 215.52 104.368 217.759 104.196C219.997 104.025 221.838 103.51 222.449 103.922C223.753 104.842 224.124 108.728 220.389 110.17C217.23 111.351 211.49 110.452 211.49 110.452Z" fill="#FFA8A7"/>
</svg>
